<?xml version="1.0" encoding="utf-8"?>
<!-- Generator: Adobe Illustrator 18.1.1, SVG Export Plug-In . SVG Version: 6.00 Build 0)  -->
<svg version="1.1" id="Camada_1" xmlns="http://www.w3.org/2000/svg" xmlns:xlink="http://www.w3.org/1999/xlink" x="0px" y="0px"
	 viewBox="-84 183 483 287" enable-background="new -84 183 483 287" xml:space="preserve">
<g>
	<defs>
		<rect id="SVGID_1_" x="-80" y="307" width="476" height="155"/>
	</defs>
	<clipPath id="SVGID_2_">
		<use xlink:href="#SVGID_1_"  overflow="visible"/>
	</clipPath>
	<g clip-path="url(#SVGID_2_)">
		<path fill="#F5F5F5" d="M109.9,307l-3.9,7.2l-0.5,0.9l-3.7-0.1l0.5-1l3.9-7H109.9z"/>
		<path fill="#F5F5F5" d="M119.1,315.1l-3.6-0.1l-5.8,12.2l-47.2-0.8l-0.7,1.4l51.2,0.8L119.1,315.1z"/>
		<path fill="#F5F5F5" d="M373.3,423.6l-23.1-2.8l2.1-27.6l0.1-1.5l-5-0.6l-0.2,1.5l-2.5,27.5l-53.4-6.4l6.9-26.3l0.3-1l0.3-1
			l10.2-40.4l19,1.8l-1-1.6l-17.8-1.6l1.5-13.2l0.1-0.7l0.2-0.7l1.6-8.2l-2.9-4.9l-2.7,12.7l-0.2,0.7l-0.1,0.7L305,343l-19-1.8l4-13
			l0.4-1.3l6.2-20h-3.8l-6.4,19.7l-0.4,1.3l-4.2,12.9l-19.7-1.9l-4.1-0.4l-19.3-1.8l6-12.9l0.4-1l-3.8-0.4l-0.5,1l-6.2,12.9
			l-36.7-3.4l-2-0.2l-1.9-0.2l-14.2-1.4l9.2-12l1-1.2l8.6-11.1h-3.8l-8.6,11l-1,1.2l-9.2,11.7l-11.4-1.1l9.9-11.1l1.1-1.2L185,307
			h-3.8l-9.3,10.3l-1.1,1.2l-9.8,11l-18.2-1.8l-21.4,23L50.2,354l-3.7,0.2l-0.1,1.7l2.9-0.1l70.6-3.4l-12.2,13l-1.2,1.2l4.2,0.5
			l1.2-1.3l12.3-13.4l32.3,3.6l-10.3,13.1l-1,1.3l4.3,0.5l1.1-1.4l10.1-13.2l15.7,1.8l4.2,0.5l45.7,5.1l11.8-25.5l19.3,1.8l4.1,0.4
			l43.2,4L294,384.9l-0.3,0.9l-0.3,1l-7.2,26.2l-52.6-6.4l-5-0.6l-72.3-8.7l-4.8-0.6L96.1,390c0.7-0.9,1.2-1.9,1.4-2.8
			c0.7-4.1-4.3-7.7-12.6-9.2l3-3.6l71.8,9l4.5,0.6l70.1,8.7l3.6,0.4l0.8-2l-3.6-0.4l-69.8-8.6l-4.5-0.6l-71.4-8.8l5.5-6.6l1.1-1.3
			l-4.2-0.4l-1.1,1.3l-10.1,11.9c-1.4-0.1-2.9-0.2-4.4-0.2c-9.6,0-18.9,2.5-23.6,6.3l-22.1-2.2l-4.4-0.4l-55.1-5.6l-1.2,2l54.6,5.5
			l4.4,0.4l21.8,2.2c-0.4,0.5-0.7,1.1-0.9,1.7c-1.3,4.1,3,7.9,11.2,9.6l-14,14.2l-2.2,2.3L-2.7,462h6.1l46.3-48l2.2-2.3l13.6-14.1
			c1.8,0.2,3.6,0.3,5.5,0.3c9.2,0,18.1-2.3,23-5.8l56.1,6.8l4.8,0.6l72.6,8.8l5,0.6l53,6.4l-7.3,26.5l-0.5,2l5.6,0.8l0.5-2.1l7-26.7
			l53.8,6.5l-2.6,27.9l-0.3,2.8l-0.8,8.7h6.1l0.6-7.9l0.2-2.8l2.2-28l24.9,3L373.3,423.6z M125.7,350.8l19.7-21.4l14.4,1.4
			l-19.5,21.6L125.7,350.8z M157.8,354.4l-13.4-1.5l19.2-21.7l11.5,1.1L157.8,354.4z M222.8,361.6l-41-4.5l-4.2-0.5l-15.6-1.8
			l17-22.2l14.3,1.4l2,0.2l1.9,0.2l36.9,3.4L222.8,361.6z M92.8,387.3c-0.9,4.6-10.4,8.4-21.2,8.4c-10.8,0-18.3-3.8-16.9-8.4
			c1.4-4.5,10.8-8,21.1-8C86.1,379.3,93.7,382.8,92.8,387.3z M338.8,365.2l-4.1,24l-0.3,1.5l5,0.6l0.3-1.5l2.9-18.3L338.8,365.2z"/>
		<path fill="#F5F5F5" d="M41.9,365.7l-59.1-5.1l22.1-17.1L1.2,343l-24.7,18.8l63.8,5.6L41.9,365.7z"/>
		<path fill="#F5F5F5" d="M25.8,321.9l-3.4-0.4l-31.1,21.4l3.6,0.5L25.8,321.9z"/>
		<path fill="#F5F5F5" d="M266.2,462h-14.4l-38.2-8.5l-2.9-0.6l-2.6-0.4l-78.6-10.9l-4-0.6l1.7-2.6l3.9,0.5l78.2,10.8l3.2,0.4
			l2.3,0.5L266.2,462z"/>
		<path fill="#D2D2D2" d="M159.8,383.4l-8.3,13.4l4.8,0.6l8.1-13.4L159.8,383.4z M159.8,383.4l-8.3,13.4l4.8,0.6l8.1-13.4
			L159.8,383.4z M159.8,383.4l-8.3,13.4l4.8,0.6l8.1-13.4L159.8,383.4z M159.8,383.4l-8.3,13.4l4.8,0.6l8.1-13.4L159.8,383.4z
			 M159.8,383.4l-8.3,13.4l4.8,0.6l8.1-13.4L159.8,383.4z M393.2,457.2c-15.6-2.1-30.7-4.1-45.4-6c-2-0.3-3.9-0.5-5.9-0.8
			c-20.2-2.7-39.6-5.3-58.2-7.8c-1.9-0.3-3.8-0.5-5.6-0.8c-19.8-2.6-38.5-5.2-56.4-7.5c3.4-8.1,7.1-16.7,10.8-25.5
			c0.3-0.8,0.6-1.5,1-2.2c3.6-8.4,7.2-16.9,10.7-25.2l49.3,5.3l4.9,0.5l49,5.3l5,0.5l3.3,0.4l-1.3-2.2l-14.6-1.5l-4.9-0.5l-36-3.8
			l-4.8-0.5l-49-5.3c6-14.2,11.7-27.6,16.6-39.1c0.2-0.5,0.4-1,0.6-1.5c2-4.7,3.8-9,5.4-12.9l18.4,1.8l4,0.4l16.6,1.6l4,0.4l8,0.8
			l-0.8-1.5L311,329l-4-0.4l-16.5-1.5l-3.9-0.4l-18.3-1.8c3.2-7.6,5.8-13.8,7.6-17.9H272c-1.8,4.1-4.4,10.2-7.7,17.5l-56.7-5.4
			l8.3-12.1h-3.8l-8.2,11.8l-13.8-0.7l-3.8-0.2l-10.6-0.5l-3.8-0.2l-65.9-3.1l-3.6-0.2l-29.9-1.4l3.1-5.7h-3.6l-9.4,17l-56.7-3.8
			l-1.8-0.5l-1,1.5l0.6,0.1l17.2,1.1l3.6,0.3l37.3,2.5l-12.2,22.1l-53.1-5.1l-3.8-0.4l-1.7-0.2l-1,1.6l9.6,0.9l3.8,0.4l45.1,4.5
			l-6.8,12.2l-3.2,4.1l-1.4,1.8l-11,13.8l-1.6,2L6.6,405.7c-19.4-2.6-35.9-4.8-49.5-6.6l-1.4,2.3c14.1,1.9,30.7,4.1,49,6.6l-55.4,54
			h6.1l54-53.4c11.3,1.5,23.1,3.1,35.6,4.8c1.6,0.2,3.2,0.4,4.8,0.6c26.4,3.5,54.9,7.4,84.1,11.3L111,462h6.1l12.4-20.4l1.6-2.7
			l7.8-12.9c25.3,3.4,51.1,6.8,76.3,10.2c-2.1,4.8-4.1,9.3-5.9,13.4c-0.4,1-0.8,1.9-1.2,2.8c-1.6,3.5-3,6.8-4.2,9.5h6.1
			c1.1-2.6,2.3-5.4,3.6-8.5c0.4-0.9,0.8-1.9,1.2-2.9c1.8-4.2,3.8-8.8,5.8-13.6c44.9,6.1,87.3,11.7,121,16.3c2,0.3,4,0.5,5.9,0.8
			c19.6,2.6,35.8,4.8,47.5,6.4L393.2,457.2z M206.8,320.4l34.2,3.3l3.8,0.4l19,1.8c-1.7,3.9-3.6,8.2-5.7,12.9
			c-0.2,0.5-0.4,1-0.6,1.5c-5,11.5-10.9,24.9-17.1,39l-68.6-7.3l8.9-13.1l1.1-1.6l15.4-22.6l1-1.4L206.8,320.4z M64.3,327.9l0.7-1.4
			l6.8-12.6l43.2,2l3.6,0.2l52.2,2.5l3.8,0.2l10.7,0.5l3.8,0.2l13.9,0.7l-8.8,12.7l-1,1.4l-15.6,22.5l-1.2,1.6l-9.1,13.1l-16.8-1.7
			l-4.4-0.4l-34.2-3.4l-4.3-0.4l-60.4-6l2-3.6l0.9-1.7L64.3,327.9z M135.4,422.8c-31.3-4.2-59.1-7.9-83.4-11.1
			c-1.6-0.2-3.2-0.4-4.8-0.6c-12.9-1.7-24.9-3.3-35.9-4.8l17.9-22.9l1.5-2l15.5-19.9l0.1,0l0.2-0.4l44.5,4.5l4.2,0.4l71,7.1
			l-5.1,8.3l-1.2,1.9l-8.3,13.4l-1.3,2.1L135.4,422.8z M216.4,433.6c-27.4-3.7-52.7-7-75.9-10.1l14.5-24.1l1.3-2.1l8.1-13.4l1.2-1.9
			l5.1-8.4l68.9,7.4c-1.4,3.2-2.8,6.4-4.2,9.6c-0.3,0.7-0.6,1.4-0.9,2c-2,4.5-4,9-5.9,13.5c-0.3,0.8-0.6,1.5-1,2.2
			C223.7,417,219.9,425.6,216.4,433.6z M159.8,383.4l-8.3,13.4l4.8,0.6l8.1-13.4L159.8,383.4z M159.8,383.4l-8.3,13.4l4.8,0.6
			l8.1-13.4L159.8,383.4z M159.8,383.4l-8.3,13.4l4.8,0.6l8.1-13.4L159.8,383.4z M159.8,383.4l-8.3,13.4l4.8,0.6l8.1-13.4
			L159.8,383.4z M159.8,383.4l-8.3,13.4l4.8,0.6l8.1-13.4L159.8,383.4z"/>
		<path fill="#F5F5F5" d="M153.1,331.3l-3.2-0.3c-1.5-0.1-3,0.1-3.5,0.7l-15.6,17.3c-0.6,0.6,0.3,1.3,2,1.5l2.8,0.3
			c1.6,0.2,3.3-0.2,3.8-0.8l15.8-17.3C155.6,332,154.7,331.4,153.1,331.3z"/>
		<path fill="#F5F5F5" d="M171.3,329.4c1.5,0.1,3-0.1,3.4-0.7l6.7-8.4l-5.1-0.2l-7,8C168.9,328.7,169.8,329.3,171.3,329.4z"/>
		<path fill="#F5F5F5" d="M168.2,332.8c-1.5-0.1-3,0.1-3.5,0.7l-15.3,17.5c-0.5,0.6,0.4,1.3,2,1.5l1.2,0.1c1.6,0.2,3.3-0.2,3.8-0.8
			l14.1-17.7c0.4-0.6-0.5-1.1-2.1-1.3L168.2,332.8z"/>
		<path fill="#F5F5F5" d="M242.5,335.7c-0.1,0.3,0.4,0.5,1.1,0.6l9.6,0.9c0.7,0,1.4-0.1,1.5-0.4c0.7-1.5,1.4-3,2.1-4.5l-12.2-1.1
			L242.5,335.7z"/>
		<path fill="#F5F5F5" d="M259.1,327.2c0.1-0.2-0.4-0.5-1.1-0.6l-9.7-0.9c-0.7-0.1-1.4,0.1-1.5,0.3l-2,4.5l12.2,1.1
			C257.8,330.1,258.4,328.6,259.1,327.2z"/>
		<path fill="#F5F5F5" d="M198.3,321.1l-7.2-0.4l-7.5,9.8l7.5,0.8L198.3,321.1z"/>
		<path fill="#F5F5F5" d="M202.7,332.5l28.3,2.6c0.7,0,1.4-0.1,1.5-0.4l2.2-4.5l-28.8-2.7L202.7,332.5z"/>
		<path fill="#F5F5F5" d="M237.2,325.1c0.1-0.2-0.4-0.5-1-0.5l-25.4-2.4c-0.7,0-1.3,0-1.5,0.3l-3,4.4l28.6,2.7L237.2,325.1z"/>
		<path fill="#F5F5F5" d="M125.2,355l-8.5,9.4l27.6,2.7l7.2-9.1c0.5-0.7-0.4-1.3-2.1-1.5l-20.3-2.3C127.5,354,125.7,354.4,125.2,355
			z"/>
		<path fill="#DEDFE1" d="M288.5,388.3l-39.8-4.3c-0.4,0-0.7,0-0.7,0.2l-8.6,21.1c-0.1,0.2,0.2,0.4,0.6,0.4l42.2,5.1
			c0.4,0,0.7,0,0.8-0.2l6.3-21.9C289.2,388.5,288.9,388.4,288.5,388.3z"/>
		<path fill="#F5F5F5" d="M233.3,382.4l-59.3-6.4l-3.1,5.2l59.7,7.3c0.4,0,0.7,0,0.8-0.2l2.5-5.5
			C233.9,382.5,233.7,382.4,233.3,382.4z"/>
		<path fill="#F5F5F5" d="M155.1,422.8c17.9,2.4,36.9,4.9,57.1,7.6l9.6-21l-62.9-7.7l-9.6,16.2C148,420,150.6,422.2,155.1,422.8z"/>
		<path fill="#F5F5F5" d="M296.4,412.5l43.8,5.3c0.4,0,0.7,0,0.7-0.2l2.4-23c0-0.2-0.3-0.3-0.7-0.4l-40.6-4.4c-0.4,0-0.7,0-0.7,0.2
			l-5.5,22.1C295.7,412.2,296,412.5,296.4,412.5z"/>
		<path fill="#F5F5F5" d="M113.4,355.6c0.8-0.8-0.8-1.7-3.1-1.5l-54.7,2.6c-1.5,0.1-2.8,0.5-3.1,1.1l-0.1,0.2l53.7,5.3L113.4,355.6z
			"/>
		<path fill="#F5F5F5" d="M56.5,397.7c-7.7-2.3-11.5-6.2-10-10.4c0.1-0.2,0.1-0.3,0.2-0.5l-14.2-1.5l-14.7,19.3
			c8.8,1.1,18.2,2.4,28.3,3.7L56.5,397.7z"/>
		<path fill="#F5F5F5" d="M134.3,415.8l10.1-15.9l-49-6c-5.8,3.4-15.2,5.6-24.8,5.6c-1,0-2,0-3-0.1l-10,10.5
			c19.8,2.6,41.7,5.5,66,8.7C128.2,419.3,133,418,134.3,415.8z"/>
		<path fill="#F5F5F5" d="M4.5,346.4l-17,13.2l22,1.9L21.5,348L4.5,346.4z"/>
		<path fill="#F5F5F5" d="M35.5,363.7l2.1-2.6l5.6-9.8c0.3-0.6-0.4-1.1-1.8-1.2l-17.9-1.8l-11.8,13.4L35.5,363.7z"/>
		<path fill="#F5F5F5" d="M31.9,368.1l-53.7-4.7l-6.2,10.5l51.1,5.2L31.9,368.1z"/>
		<path fill="#F5F5F5" d="M-10.9,344.8l-5.2,8.9l11-8.3L-10.9,344.8z"/>
		<path fill="#F5F5F5" d="M301.1,345.9c0.1-0.3-0.5-0.6-1.3-0.6l-33.3-3.1c-0.7-0.1-1.4,0.1-1.5,0.4c-1.1,2.6-2.1,5.2-3.2,7.9
			l37.1,3.4L301.1,345.9z"/>
		<path fill="#F5F5F5" d="M298.7,354.6l-37.2-3.4c-1.9,4.5-3.8,9.4-5.9,14.3l38.8,4.3L298.7,354.6z"/>
		<path fill="#F5F5F5" d="M250.5,378c-0.1,0.1,0.2,0.3,0.5,0.4l39.2,4.2c0.4,0,0.7,0,0.7-0.2l3.2-11.6l-38.9-4.3
			C253.7,370.1,252.1,374,250.5,378z"/>
		<path fill="#F5F5F5" d="M51.3,381.9c5.8-3.7,15.5-6,25.4-6c0.6,0,1.2,0,1.8,0l7.7-8.9l-36.9-3.8l-13.1,17.1L51.3,381.9z"/>
		<path fill="#F5F5F5" d="M334.3,357.1h-0.2l-24.2-2.3l1.9-7.9c0.1-0.3,0.7-0.4,1.5-0.4l14.6,1.4c0.4,0,0.7,0.1,1,0.2
			c0.2,0.1,0.3,0.2,0.4,0.3L334.3,357.1z"/>
		<path fill="#F5F5F5" d="M336.2,360.5l-0.1,0.2l-2.5,13.4l-27.8-3.1l3.7-15.4l24.9,2.3h0.2l1.4,2.3
			C336.2,360.4,336.2,360.4,336.2,360.5z"/>
		<path fill="#F5F5F5" d="M302.9,383.5c-0.1,0.1,0.3,0.3,0.6,0.4l27.2,2.9c0.4,0,0.7,0,0.7-0.2l2.1-11.6l-27.9-3.1L302.9,383.5z"/>
		<path fill="#F5F5F5" d="M236.8,411.5l-8.5,20.6c-0.1,0.2,0.2,0.4,0.6,0.4l45,6c0.4,0,0.8,0,0.8-0.3l6.2-21.4
			c0.1-0.2-0.2-0.4-0.6-0.4l-42.8-5.2C237.2,411.2,236.8,411.3,236.8,411.5z"/>
		<path fill="#F5F5F5" d="M140.1,433.4c-1.4,2.3,1.3,4.7,6.1,5.4l58.6,8l4-8.7c-19.1-2.6-38.4-5.2-57.6-7.8
			C146.3,429.7,141.4,431.1,140.1,433.4z"/>
		<path fill="#F5F5F5" d="M230.3,339.2c0.1-0.3-0.4-0.5-1.1-0.6l-28.9-2.7l-5.5,8.3l31.6,2.9L230.3,339.2z"/>
		<path fill="#F5F5F5" d="M186.8,356.3l31.9,3.5c0.8,0.1,1.5-0.1,1.7-0.4l5.7-11.6l-31.7-3L186.8,356.3z"/>
		<path fill="#F5F5F5" d="M224.4,403.5l4.4-9.7c0.1-0.2-0.2-0.3-0.5-0.4l-60.2-7.5l-6.1,10.4l61.7,7.4
			C224,403.8,224.3,403.7,224.4,403.5z"/>
		<path fill="#F5F5F5" d="M184.7,334.4c-2.1-0.2-4.1,0.2-4.7,1l-12.9,17c-0.7,0.9,0.7,1.8,3,2.1c2.3,0.3,4.6-0.3,5.2-1.1l12.2-17.2
			C188.1,335.4,186.8,334.6,184.7,334.4z"/>
		<path fill="#F5F5F5" d="M164.2,369.1l7.2-10.1l-8.5-1l-7.7,10.2L164.2,369.1z"/>
		<path fill="#F5F5F5" d="M93.9,371.7l63.5,7.8l3.2-4.9L96.9,368L93.9,371.7z"/>
		<path fill="#DEDFE1" d="M72,394.1c8.7,0,16.4-3.1,17.2-6.8c0.7-3.6-5.4-6.5-13.8-6.5c-8.3,0-16,2.9-17.1,6.5
			C57.2,391,63.3,394.1,72,394.1z"/>
		<path fill="#F5F5F5" d="M252.7,341.3c0.1-0.3-0.4-0.5-1.2-0.6l-9.5-0.9c-0.7-0.1-1.4,0.1-1.5,0.4l-3.6,7.9l12.2,1.1
			C250.3,346.5,251.5,343.9,252.7,341.3z"/>
		<path fill="#F5F5F5" d="M229.3,364.9c-0.2,0.3-0.9,0.5-1.7,0.4l-43.5-4.9l-6.7,10.1l58.6,6.2c0.3,0,0.6,0,0.7-0.2
			c4.2-9.3,8.3-18.3,12-26.5l-12.2-1.1L229.3,364.9z"/>
		<path fill="#F5F5F5" d="M147.8,394.6l6.6-10.4l-64.3-8l-0.8,1c7.9,1.9,12.6,5.7,11.9,10c-0.1,0.6-0.3,1.1-0.6,1.7L147.8,394.6z"/>
		<path fill="#F5F5F5" d="M336.2,455.4c-31.9-4.3-70.5-9.5-111.2-15.1l-3.8,9.4l56.1,12.4c0.1,0,0.2,0,0.3,0h58.1
			c0.4,0,0.6-0.1,0.6-0.3l0.6-5.9C337,455.7,336.6,455.4,336.2,455.4z"/>
		<path fill="#F5F5F5" d="M339.5,423.8l-44.6-5.4c-0.4,0-0.7,0-0.8,0.2l-5.4,21.6c-0.1,0.2,0.3,0.4,0.7,0.5l47.6,6.3
			c0.4,0,0.8,0,0.8-0.3l2.3-22.5C340.2,424,339.9,423.8,339.5,423.8z"/>
		<path fill="#F5F5F5" d="M375.8,428.2l-21.1-2.6c-0.4,0-0.7,0-0.7,0.2l-1.5,22.7c0,0.2,0.3,0.4,0.8,0.5l37.4,4.9
			c0.5,0.1,0.9-0.1,0.7-0.4l-14.9-25.1C376.4,428.4,376.1,428.2,375.8,428.2z"/>
		<path fill="#F5F5F5" d="M-7.8,381.2l-13.4,18.3c-7.4-1-14.2-1.9-20.3-2.6c-0.1,0-0.1,0-0.1,0l10.6-18h0.1L-7.8,381.2z"/>
		<path fill="#F5F5F5" d="M3.8,402.8L19,383.9l-24.7-2.5L-19,399.8C-11.9,400.8-4.3,401.7,3.8,402.8z"/>
		<path fill="#F5F5F5" d="M11.7,411.5l-50.4,50.6h31.2l46.6-46.9L11.7,411.5z"/>
		<path fill="#F5F5F5" d="M131,448.9l-4.1,7c-1.8,3.1,2.5,6.2,8.7,6.2h62.2l3.8-8.3l-59.1-8.3C137.6,444.9,132.4,446.3,131,448.9z"
			/>
		<path fill="#F5F5F5" d="M51.1,416.8L7.9,462.1h51.2c9-15.5,19.2-32.9,23.9-40.9C72.1,419.7,61.4,418.2,51.1,416.8z"/>
		<path fill="#F5F5F5" d="M119,426c-11.3-1.5-22.5-3-33.5-4.5c-0.5,0.9-1.1,1.9-1.7,3c-2.9,4.9-6.8,11.7-10.8,18.8
			c-3.8,6.5-7.6,13.2-10.8,18.8h35.6c4.3,0,8.3-1.5,9.7-3.7l17.2-27.2C126.1,428.9,123.5,426.6,119,426z"/>
		<path fill="#F5F5F5" d="M237.8,461.3l-19.6-4.4l-2.1,5.2h21.6C238.5,462.1,238.6,461.4,237.8,461.3z"/>
		<path fill="#F5F5F5" d="M356.6,395.7c-0.4,0-0.7,0-0.7,0.2l-1.5,23.2c0,0.2,0.3,0.4,0.7,0.4l16.3,2c0.5,0,0.8-0.1,0.7-0.4
			l-14.9-25.2C357.2,395.9,356.9,395.8,356.6,395.7z"/>
		<path fill="#F5F5F5" d="M379.4,461.2l-26.7-3.6c-0.4,0-0.8,0.1-0.8,0.3l-0.3,3.6c0,0.3,0.5,0.5,1.1,0.5h27
			C380.5,462.1,380.3,461.4,379.4,461.2z"/>
		<path fill="#F5F5F5" d="M31.5,320.5l6.6-13.6H11.5l-6.6,11.2l3.2,0.8L31.5,320.5z"/>
		<path fill="#F5F5F5" d="M56.6,322.2c1.6,0.1,3.3-0.3,3.6-0.9l7.7-13.5c0.3-0.5-0.7-0.9-2.3-0.9H39.9l-6.5,13.7L56.6,322.2z"/>
		<path fill="#F5F5F5" d="M-45.8,403.7l-34.5,58.3h23.4l54.6-52.5C-18.4,407.4-33.1,405.4-45.8,403.7z"/>
		<path fill="#F5F5F5" d="M293.9,325.6c-0.1,0.2,0.4,0.5,1.2,0.5l7.9,0.8c0.7,0.1,1.3-0.1,1.4-0.3l2.3-9.8l-9.7-1.1L293.9,325.6z"/>
		<path fill="#F5F5F5" d="M307.6,312.2C307.6,312.1,307.6,312.1,307.6,312.2l-2.8-4.9c-0.1-0.2-0.7-0.4-1.4-0.4h-3
			c-0.5,0-0.9,0.1-1,0.3l-2.4,7.9l9.7,1.1L307.6,312.2z"/>
		<path fill="#F5F5F5" d="M345.2,377.6l-1.5,10.2c0,0.1,0.3,0.3,0.7,0.4l8,0.8c0.4,0,0.8-0.1,0.7-0.3l-6.6-11.1
			C346.3,377.4,345.2,377.4,345.2,377.6z"/>
		<path fill="#F5F5F5" d="M97.7,312.5c1.5,0.1,2.9-0.3,3.2-0.8l2.2-3.9c0.3-0.5-0.8-0.9-2.4-0.9h-5.1c-0.6,1.5-1.2,3.4-2,5.4
			L97.7,312.5z"/>
		<path fill="#F5F5F5" d="M81.6,306.9c-1.4,0-2.6,0.4-2.9,0.8l-1.6,3c-0.3,0.4,0.6,0.9,2,0.9l12.7,0.6c0.7-2,1.4-3.8,2-5.3H81.6z"/>
		<path fill="#F5F5F5" d="M16.2,323.6l-14.1-1l-10.3,17.4H-8L16.2,323.6z"/>
		<path fill="#F5F5F5" d="M213.4,318.4l46.4,4.4c0.7,0,1.3-0.1,1.4-0.3c1.2-2.6,2.3-5.1,3.3-7.3l-48.3-3l-3.8,5.7
			C212.2,318.1,212.7,318.3,213.4,318.4z"/>
		<path fill="#F5F5F5" d="M268,307.4c0.1-0.3-0.6-0.5-1.3-0.5h-46.1c-0.5,0-1,0.1-1.1,0.3l-2.9,4.4l48.2,3
			C266,311.8,267.2,309.4,268,307.4z"/>
		<path fill="#F5F5F5" d="M282.5,329.4c0.1-0.2-0.4-0.5-1.2-0.6l-9.1-0.9c-0.7-0.1-1.3,0.1-1.4,0.3c-0.6,1.4-1.2,2.9-1.8,4.4l12,1.1
			L282.5,329.4z"/>
		<path fill="#F5F5F5" d="M266.9,337.9c-0.1,0.3,0.4,0.5,1.2,0.6l9.8,0.9c0.7,0.1,1.4-0.1,1.5-0.4l1.5-4.5l-12.1-1.1
			C268.1,334.9,267.5,336.4,266.9,337.9z"/>
		<path fill="#F5F5F5" d="M315.5,328c0.8,0.1,1.5-0.1,1.4-0.4c-0.3-0.5-2.5-0.6-2.6-0.1C314.2,327.7,314.7,327.9,315.5,328z"/>
		<path fill="#F5F5F5" d="M289.6,340c-0.1,0.3,0.5,0.5,1.2,0.6l9.8,0.9c0.7,0.1,1.4-0.1,1.5-0.4l0.6-4.5l-11.8-1.1L289.6,340z"/>
		<path fill="#F5F5F5" d="M303.4,331.4c0.1-0.2-0.5-0.5-1.2-0.5l-8.4-0.8c-0.7-0.1-1.4,0.1-1.4,0.3l-1.3,4.4l11.7,1.1L303.4,331.4z"
			/>
		<path fill="#F5F5F5" d="M208.1,307.4c0.2-0.3-0.4-0.5-1.2-0.5h-5.3l-7.7,10.1l7.1,0.4L208.1,307.4z"/>
		<path fill="#F5F5F5" d="M275.1,317.6l11,1l2.5-7.3l-10.5-1.1C277.3,312.4,276.3,314.8,275.1,317.6z"/>
		<path fill="#F5F5F5" d="M290,307.4c0.1-0.3-0.6-0.5-1.4-0.5h-8.2c-0.5,0-1,0.1-1,0.3c-0.3,0.8-0.6,1.6-1,2.5l10.5,1L290,307.4z"/>
		<path fill="#F5F5F5" d="M272.8,323.5c-0.1,0.2,0.4,0.5,1.1,0.5l8.9,0.8c0.7,0.1,1.3-0.1,1.4-0.3l1.8-5.3l-11-1
			C274.2,319.9,273.5,321.7,272.8,323.5z"/>
		<path fill="#DEDFE1" d="M59,352.4l58.1-2.7c1.2,0,2.2-0.4,2.6-0.8l20.2-21.5c0.5-0.5,2-0.8,3.5-0.7l12.9,1.3
			c1.5,0.1,3-0.1,3.4-0.7l6-6.6c0.5-0.6-0.6-1.1-2.3-1.2l-39.9-1.9c-1.5-0.1-3,0.3-3.2,0.8l-4.6,10.4c-0.2,0.5-1.6,0.9-3.1,0.9
			L70.4,329c-1.5,0-3,0.4-3.3,0.9L56,351.1C55.6,351.8,57,352.5,59,352.4z"/>
		<path fill="#F5F5F5" d="M192.1,306.9h-4.2l-8.2,9.5l4.8,0.2L192.1,306.9z"/>
		<path fill="#F5F5F5" d="M72.3,325.6l15.2,0.2c0.8-2.6,2-6.2,3.1-9.8l-12.9-0.6c-1.5-0.1-3.1,0.3-3.3,0.8l-4.3,8.3
			C69.6,325.1,70.7,325.6,72.3,325.6z"/>
		<path fill="#F5F5F5" d="M104.6,326.1c1.5,0,2.8-0.4,3.1-0.9l3.5-7.3c0.2-0.5-0.7-0.9-2.1-1l-16.8-0.8c-1.1,3.2-2.1,6.6-3.1,9.8
			L104.6,326.1z"/>
		<path fill="#F5F5F5" d="M43.1,345.1c1.7,0.2,3.7-0.3,4.1-1l3.9-6.9l-38.8-3.7l-10.8,7.6L43.1,345.1z"/>
		<path fill="#F5F5F5" d="M56.8,327.3c0.3-0.5-0.5-0.9-1.9-1l-27.1-1.9c-1.3-0.1-2.8,0.2-3.5,0.7l-11,7.7l38.3,3.7L56.8,327.3z"/>
		<path fill="#F5F5F5" d="M111.9,313.2l56,2.6c1.3,0,2.5-0.2,2.9-0.6l7.6-8.3H115c-1.3,0-2.5,0.3-2.7,0.8l-2.4,4.5
			C109.6,312.7,110.6,313.2,111.9,313.2z"/>
		<path fill="#F5F5F5" d="M313.8,342.7l10.8,1c0.9,0.1,1.6-0.2,1.4-0.5l-2.7-4.7l-10.3-1l-0.5,4.5
			C312.5,342.4,313.1,342.7,313.8,342.7z"/>
		<path fill="#F5F5F5" d="M320,332.9c-0.1-0.2-0.6-0.4-1.2-0.4l-3.8-0.4c-0.7-0.1-1.4,0.1-1.4,0.4l-0.5,4.4l9.8,0.9L320,332.9z"/>
	</g>
</g>
<g>
	<defs>
		<rect id="SVGID_3_" x="85" y="183" width="141" height="188"/>
	</defs>
	<clipPath id="SVGID_4_">
		<use xlink:href="#SVGID_3_"  overflow="visible"/>
	</clipPath>
	<g clip-path="url(#SVGID_4_)">
		<path fill="#DEDFE1" d="M148.3,367.2C94.9,289.8,85,281.9,85,253.5c0-38.9,31.6-70.5,70.5-70.5s70.5,31.6,70.5,70.5
			c0,28.4-9.9,36.4-63.3,113.7C159.2,372.2,151.8,372.2,148.3,367.2z"/>
	</g>
</g>
<path fill="#F5F5F5" d="M155.6,213c-15.5,0-25.6,6.4-33.5,17.7c-1.4,2.1-1,4.9,1,6.4l8.4,6.4c2,1.5,4.9,1.2,6.5-0.8
	c4.9-6.1,8.5-9.6,16.1-9.6c6,0,13.4,3.9,13.4,9.7c0,4.4-3.6,6.6-9.5,10c-6.9,3.9-16,8.7-16,20.7v1.9c0,2.6,2.1,4.7,4.7,4.7h14.1
	c2.6,0,4.7-2.1,4.7-4.7v-1.1c0-8.3,24.4-8.7,24.4-31.2C189.7,225.9,172.1,213,155.6,213z M153.6,285.6c-7.4,0-13.5,6-13.5,13.5
	c0,7.4,6,13.5,13.5,13.5s13.5-6,13.5-13.5C167.1,291.7,161.1,285.6,153.6,285.6z"/>
</svg>
