<?xml version="1.0" encoding="utf-8"?>
<!-- Generator: Adobe Illustrator 18.1.1, SVG Export Plug-In . SVG Version: 6.00 Build 0)  -->
<svg version="1.1" id="Camada_1" xmlns="http://www.w3.org/2000/svg" xmlns:xlink="http://www.w3.org/1999/xlink" x="0px" y="0px"
	 viewBox="0 0 652 652" enable-background="new 0 0 652 652" xml:space="preserve">
<g>
	<g>
		<g>
			<defs>
				<rect id="SVGID_1_" x="4.7" y="305.1" width="642.5" height="209.2"/>
			</defs>
			<clipPath id="SVGID_2_">
				<use xlink:href="#SVGID_1_"  overflow="visible"/>
			</clipPath>
			<g clip-path="url(#SVGID_2_)">
				<path fill="#F5F5F5" d="M261.1,305.1l-5.3,9.7l-0.7,1.2l-5-0.1l0.7-1.3l5.3-9.4H261.1z"/>
				<path fill="#F5F5F5" d="M273.5,316l-4.9-0.1l-7.8,16.5l-63.7-1.1l-0.9,1.9l69.1,1.1L273.5,316z"/>
				<path fill="#F5F5F5" d="M616.6,462.5l-31.2-3.8l2.8-37.3l0.1-2l-6.7-0.8l-0.3,2l-3.4,37.1l-72.1-8.6l9.3-35.5l0.4-1.3l0.4-1.3
					l13.8-54.5l25.6,2.4l-1.3-2.2l-24-2.2l2-17.8l0.1-0.9l0.3-0.9l2.2-11.1l-3.9-6.6l-3.6,17.1l-0.3,0.9l-0.1,0.9l-2.3,17.5
					l-25.6-2.4l5.4-17.5l0.5-1.8l8.4-27h-5.1l-8.6,26.6l-0.5,1.8l-5.7,17.4l-26.6-2.6l-5.5-0.5l-26.1-2.4l8.1-17.4l0.5-1.3l-5.1-0.5
					l-0.7,1.3l-8.4,17.4l-49.5-4.6l-2.7-0.3l-2.6-0.3l-19.2-1.9l12.4-16.2l1.3-1.6l11.6-15h-5.1l-11.6,14.8l-1.3,1.6l-12.4,15.8
					l-15.4-1.5l13.4-15l1.5-1.6l12.7-13.9h-5.1L344.7,319l-1.5,1.6L330,335.4l-24.6-2.4l-28.9,31l-96.1,4.5l-5,0.3l-0.1,2.3l3.9-0.1
					l95.3-4.6l-16.5,17.5l-1.6,1.6l5.7,0.7l1.6-1.8l16.6-18.1l43.6,4.9l-13.9,17.7l-1.3,1.8l5.8,0.7l1.5-1.9l13.6-17.8l21.2,2.4
					l5.7,0.7l61.7,6.9l15.9-34.4l26.1,2.4l5.5,0.5l58.3,5.4l-14.4,54.7l-0.4,1.2l-0.4,1.3l-9.7,35.4l-71-8.6l-6.7-0.8L323.7,427
					l-6.5-0.8l-74.8-9c0.9-1.2,1.6-2.6,1.9-3.8c0.9-5.5-5.8-10.4-17-12.4l4-4.9l96.9,12.1l6.1,0.8l94.6,11.7l4.9,0.5l1.1-2.7
					l-4.9-0.5l-94.2-11.6l-6.1-0.8l-96.4-11.9l7.4-8.9l1.5-1.8l-5.7-0.5l-1.5,1.8l-13.6,16.1c-1.9-0.1-3.9-0.3-5.9-0.3
					c-13,0-25.5,3.4-31.9,8.5l-29.8-3l-5.9-0.5l-74.4-7.6l-1.6,2.7l73.7,7.4l5.9,0.5l29.4,3c-0.5,0.7-0.9,1.5-1.2,2.3
					c-1.8,5.5,4,10.7,15.1,13L176,445.6l-3,3.1l-64,65.6h8.2l62.5-64.8l3-3.1l18.4-19c2.4,0.3,4.9,0.4,7.4,0.4
					c12.4,0,24.4-3.1,31-7.8l75.7,9.2l6.5,0.8l98,11.9l6.7,0.8l71.5,8.6l-9.9,35.8l-0.7,2.7l7.6,1.1l0.7-2.8l9.4-36l72.6,8.8
					l-3.5,37.7l-0.4,3.8l-1.1,11.7h8.2l0.8-10.7l0.3-3.8l3-37.8l33.6,4L616.6,462.5z M282.4,364.2l26.6-28.9l19.4,1.9l-26.3,29.2
					L282.4,364.2z M325.7,369l-18.1-2l25.9-29.3l15.5,1.5L325.7,369z M413.5,378.8l-55.3-6.1l-5.7-0.7l-21.1-2.4l22.9-30l19.3,1.9
					l2.7,0.3l2.6,0.3l49.8,4.6L413.5,378.8z M238,413.5c-1.2,6.2-14,11.3-28.6,11.3c-14.6,0-24.7-5.1-22.8-11.3
					c1.9-6.1,14.6-10.8,28.5-10.8C228.9,402.7,239.2,407.4,238,413.5z M570,383.6l-5.5,32.4l-0.4,2l6.7,0.8l0.4-2l3.9-24.7
					L570,383.6z"/>
				<path fill="#F5F5F5" d="M169.3,384.3l-79.8-6.9l29.8-23.1l-5-0.7L81,379l86.1,7.6L169.3,384.3z"/>
				<path fill="#F5F5F5" d="M147.5,325.2l-4.6-0.5l-42,28.9l4.9,0.7L147.5,325.2z"/>
				<path fill="#F5F5F5" d="M472,514.3h-19.4L401,502.8l-3.9-0.8l-3.5-0.5l-106.1-14.7l-5.4-0.8l2.3-3.5l5.3,0.7l105.6,14.6l4.3,0.5
					l3.1,0.7L472,514.3z"/>
				<path fill="#D2D2D2" d="M328.4,408.2l-11.2,18.1l6.5,0.8l10.9-18.1L328.4,408.2z M328.4,408.2l-11.2,18.1l6.5,0.8l10.9-18.1
					L328.4,408.2z M328.4,408.2l-11.2,18.1l6.5,0.8l10.9-18.1L328.4,408.2z M328.4,408.2l-11.2,18.1l6.5,0.8l10.9-18.1L328.4,408.2z
					 M328.4,408.2l-11.2,18.1l6.5,0.8l10.9-18.1L328.4,408.2z M643.5,507.8c-21.1-2.8-41.4-5.5-61.3-8.1c-2.7-0.4-5.3-0.7-8-1.1
					c-27.3-3.6-53.5-7.2-78.6-10.5c-2.6-0.4-5.1-0.7-7.6-1.1c-26.7-3.5-52-7-76.1-10.1c4.6-10.9,9.6-22.5,14.6-34.4
					c0.4-1.1,0.8-2,1.3-3c4.9-11.3,9.7-22.8,14.4-34l66.5,7.2l6.6,0.7l66.1,7.2l6.7,0.7l4.5,0.5l-1.8-3l-19.7-2l-6.6-0.7l-48.6-5.1
					l-6.5-0.7l-66.1-7.2c8.1-19.2,15.8-37.3,22.4-52.8c0.3-0.7,0.5-1.3,0.8-2c2.7-6.3,5.1-12.1,7.3-17.4l24.8,2.4l5.4,0.5l22.4,2.2
					l5.4,0.5l10.8,1.1l-1.1-2l-9.3-0.8l-5.4-0.5l-22.3-2l-5.3-0.5l-24.7-2.4c4.3-10.3,7.8-18.6,10.3-24.2h-5.3
					c-2.4,5.5-5.9,13.8-10.4,23.6l-76.5-7.3l11.2-16.3H399L387.9,321l-18.6-0.9l-5.1-0.3l-14.3-0.7l-5.1-0.3l-89-4.2l-4.9-0.3
					l-40.4-1.9l4.2-7.7h-4.9l-12.7,22.9l-76.5-5.1l-2.4-0.7l-1.3,2l0.8,0.1l23.2,1.5l4.9,0.4l50.3,3.4l-16.5,29.8l-71.7-6.9
					l-5.1-0.5l-2.3-0.3l-1.3,2.2l13,1.2l5.1,0.5l60.9,6.1L169,378l-4.3,5.5l-1.9,2.4l-14.8,18.6l-2.2,2.7l-24.2,31
					c-26.2-3.5-48.5-6.5-66.8-8.9l-1.9,3.1c19,2.6,41.4,5.5,66.1,8.9l-74.8,72.9h8.2l72.9-72.1c15.3,2,31.2,4.2,48.1,6.5
					c2.2,0.3,4.3,0.5,6.5,0.8c35.6,4.7,74.1,10,113.5,15.3l-30.9,49.5h8.2l16.7-27.5l2.2-3.6l10.5-17.4c34.2,4.6,69,9.2,103,13.8
					c-2.8,6.5-5.5,12.6-8,18.1c-0.5,1.3-1.1,2.6-1.6,3.8c-2.2,4.7-4,9.2-5.7,12.8h8.2c1.5-3.5,3.1-7.3,4.9-11.5
					c0.5-1.2,1.1-2.6,1.6-3.9c2.4-5.7,5.1-11.9,7.8-18.4c60.6,8.2,117.8,15.8,163.3,22c2.7,0.4,5.4,0.7,8,1.1
					c26.5,3.5,48.3,6.5,64.1,8.6L643.5,507.8z M391.9,323.2l46.2,4.5l5.1,0.5l25.6,2.4c-2.3,5.3-4.9,11.1-7.7,17.4
					c-0.3,0.7-0.5,1.3-0.8,2c-6.7,15.5-14.7,33.6-23.1,52.6l-92.6-9.9l12-17.7l1.5-2.2l20.8-30.5l1.3-1.9L391.9,323.2z M199.5,333.3
					l0.9-1.9l9.2-17l58.3,2.7l4.9,0.3l70.5,3.4l5.1,0.3l14.4,0.7l5.1,0.3l18.8,0.9L374.8,340l-1.3,1.9l-21.1,30.4l-1.6,2.2
					l-12.3,17.7l-22.7-2.3l-5.9-0.5l-46.2-4.6l-5.8-0.5l-81.5-8.1l2.7-4.9l1.2-2.3L199.5,333.3z M295.5,461.4
					c-42.2-5.7-79.8-10.7-112.6-15c-2.2-0.3-4.3-0.5-6.5-0.8c-17.4-2.3-33.6-4.5-48.5-6.5l24.2-30.9l2-2.7l20.9-26.9h0.1l0.3-0.5
					l60.1,6.1l5.7,0.5l95.8,9.6l-6.9,11.2l-1.6,2.6l-11.2,18.1l-1.8,2.8L295.5,461.4z M404.8,476c-37-5-71.1-9.4-102.5-13.6
					l19.6-32.5l1.8-2.8l10.9-18.1l1.6-2.6l6.9-11.3l93,10c-1.9,4.3-3.8,8.6-5.7,13c-0.4,0.9-0.8,1.9-1.2,2.7
					c-2.7,6.1-5.4,12.1-8,18.2c-0.4,1.1-0.8,2-1.3,3C414.7,453.5,409.5,465.2,404.8,476z M328.4,408.2l-11.2,18.1l6.5,0.8l10.9-18.1
					L328.4,408.2z M328.4,408.2l-11.2,18.1l6.5,0.8l10.9-18.1L328.4,408.2z M328.4,408.2l-11.2,18.1l6.5,0.8l10.9-18.1L328.4,408.2z
					 M328.4,408.2l-11.2,18.1l6.5,0.8l10.9-18.1L328.4,408.2z M328.4,408.2l-11.2,18.1l6.5,0.8l10.9-18.1L328.4,408.2z"/>
				<path fill="#F5F5F5" d="M319.4,337.9l-4.3-0.4c-2-0.1-4,0.1-4.7,0.9l-21.1,23.4c-0.8,0.8,0.4,1.8,2.7,2l3.8,0.4
					c2.2,0.3,4.5-0.3,5.1-1.1l21.3-23.4C322.7,338.8,321.5,338,319.4,337.9z"/>
				<path fill="#F5F5F5" d="M343.9,335.3c2,0.1,4-0.1,4.6-0.9l9-11.3l-6.9-0.3l-9.4,10.8C340.7,334.4,341.9,335.2,343.9,335.3z"/>
				<path fill="#F5F5F5" d="M339.8,339.9c-2-0.1-4,0.1-4.7,0.9l-20.7,23.6c-0.7,0.8,0.5,1.8,2.7,2l1.6,0.1c2.2,0.3,4.5-0.3,5.1-1.1
					l19-23.9c0.5-0.8-0.7-1.5-2.8-1.8L339.8,339.9z"/>
				<path fill="#F5F5F5" d="M440,343.8c-0.1,0.4,0.5,0.7,1.5,0.8l13,1.2c0.9,0,1.9-0.1,2-0.5c0.9-2,1.9-4,2.8-6.1l-16.5-1.5
					L440,343.8z"/>
				<path fill="#F5F5F5" d="M462.5,332.3c0.1-0.3-0.5-0.7-1.5-0.8l-13.1-1.2c-0.9-0.1-1.9,0.1-2,0.4l-2.7,6.1l16.5,1.5
					C460.7,336.2,461.5,334.2,462.5,332.3z"/>
				<path fill="#F5F5F5" d="M380.4,324.1l-9.7-0.5l-10.1,13.2l10.1,1.1L380.4,324.1z"/>
				<path fill="#F5F5F5" d="M386.3,339.5l38.2,3.5c0.9,0,1.9-0.1,2-0.5l3-6.1l-38.9-3.6L386.3,339.5z"/>
				<path fill="#F5F5F5" d="M432.9,329.5c0.1-0.3-0.5-0.7-1.3-0.7l-34.3-3.2c-0.9,0-1.8,0-2,0.4l-4,5.9l38.6,3.6L432.9,329.5z"/>
				<path fill="#F5F5F5" d="M281.7,369.9l-11.5,12.7l37.3,3.6l9.7-12.3c0.7-0.9-0.5-1.8-2.8-2l-27.4-3.1
					C284.8,368.5,282.4,369,281.7,369.9z"/>
				<path fill="#DEDFE1" d="M502.1,414.8l-53.7-5.8c-0.5,0-0.9,0-0.9,0.3l-11.6,28.5c-0.1,0.3,0.3,0.5,0.8,0.5l57,6.9
					c0.5,0,0.9,0,1.1-0.3l8.5-29.6C503.1,415.1,502.7,414.9,502.1,414.8z"/>
				<path fill="#F5F5F5" d="M427.6,406.8l-80-8.6l-4.2,7l80.6,9.9c0.5,0,0.9,0,1.1-0.3l3.4-7.4C428.4,407,428.2,406.8,427.6,406.8z"
					/>
				<path fill="#F5F5F5" d="M322.1,461.4c24.2,3.2,49.8,6.6,77.1,10.3l13-28.3l-84.9-10.4l-13,21.9
					C312.5,457.6,316,460.6,322.1,461.4z"/>
				<path fill="#F5F5F5" d="M512.8,447.5l59.1,7.2c0.5,0,0.9,0,0.9-0.3l3.2-31c0-0.3-0.4-0.4-0.9-0.5l-54.8-5.9
					c-0.5,0-0.9,0-0.9,0.3l-7.4,29.8C511.9,447.1,512.3,447.5,512.8,447.5z"/>
				<path fill="#F5F5F5" d="M265.8,370.7c1.1-1.1-1.1-2.3-4.2-2l-73.8,3.5c-2,0.1-3.8,0.7-4.2,1.5l-0.1,0.3l72.5,7.2L265.8,370.7z"
					/>
				<path fill="#F5F5F5" d="M189,427.5c-10.4-3.1-15.5-8.4-13.5-14c0.1-0.3,0.1-0.4,0.3-0.7l-19.2-2l-19.8,26.1
					c11.9,1.5,24.6,3.2,38.2,5L189,427.5z"/>
				<path fill="#F5F5F5" d="M294,451.9l13.6-21.5l-66.1-8.1c-7.8,4.6-20.5,7.6-33.5,7.6c-1.3,0-2.7,0-4-0.1L190.5,444
					c26.7,3.5,56.3,7.4,89.1,11.7C285.8,456.6,292.2,454.9,294,451.9z"/>
				<path fill="#F5F5F5" d="M118.8,358.2l-22.9,17.8l29.7,2.6l16.2-18.2L118.8,358.2z"/>
				<path fill="#F5F5F5" d="M160.6,381.6l2.8-3.5l7.6-13.2c0.4-0.8-0.5-1.5-2.4-1.6l-24.2-2.4l-15.9,18.1L160.6,381.6z"/>
				<path fill="#F5F5F5" d="M155.8,387.5l-72.5-6.3l-8.4,14.2l69,7L155.8,387.5z"/>
				<path fill="#F5F5F5" d="M98,356.1l-7,12l14.8-11.2L98,356.1z"/>
				<path fill="#F5F5F5" d="M519.1,357.6c0.1-0.4-0.7-0.8-1.8-0.8l-44.9-4.2c-0.9-0.1-1.9,0.1-2,0.5c-1.5,3.5-2.8,7-4.3,10.7
					l50.1,4.6L519.1,357.6z"/>
				<path fill="#F5F5F5" d="M515.9,369.3l-50.2-4.6c-2.6,6.1-5.1,12.7-8,19.3l52.4,5.8L515.9,369.3z"/>
				<path fill="#F5F5F5" d="M450.8,400.9c-0.1,0.1,0.3,0.4,0.7,0.5l52.9,5.7c0.5,0,0.9,0,0.9-0.3l4.3-15.7l-52.5-5.8
					C455.2,390.2,453,395.5,450.8,400.9z"/>
				<path fill="#F5F5F5" d="M182,406.2c7.8-5,20.9-8.1,34.3-8.1c0.8,0,1.6,0,2.4,0l10.4-12l-49.8-5.1L161.6,404L182,406.2z"/>
				<path fill="#F5F5F5" d="M564,372.7h-0.3l-32.7-3.1l2.6-10.7c0.1-0.4,0.9-0.5,2-0.5l19.7,1.9c0.5,0,0.9,0.1,1.3,0.3
					c0.3,0.1,0.4,0.3,0.5,0.4L564,372.7z"/>
				<path fill="#F5F5F5" d="M566.5,377.3l-0.1,0.3l-3.4,18.1l-37.5-4.2l5-20.8l33.6,3.1h0.3l1.9,3.1
					C566.5,377.1,566.5,377.1,566.5,377.3z"/>
				<path fill="#F5F5F5" d="M521.6,408.3c-0.1,0.1,0.4,0.4,0.8,0.5l36.7,3.9c0.5,0,0.9,0,0.9-0.3l2.8-15.7l-37.7-4.2L521.6,408.3z"
					/>
				<path fill="#F5F5F5" d="M432.4,446.1l-11.5,27.8c-0.1,0.3,0.3,0.5,0.8,0.5l60.7,8.1c0.5,0,1.1,0,1.1-0.4l8.4-28.9
					c0.1-0.3-0.3-0.5-0.8-0.5l-57.8-7C432.9,445.7,432.4,445.9,432.4,446.1z"/>
				<path fill="#F5F5F5" d="M301.8,475.7c-1.9,3.1,1.8,6.3,8.2,7.3l79.1,10.8l5.4-11.7c-25.8-3.5-51.8-7-77.8-10.5
					C310.2,470.7,303.6,472.6,301.8,475.7z"/>
				<path fill="#F5F5F5" d="M423.6,348.5c0.1-0.4-0.5-0.7-1.5-0.8l-39-3.6l-7.4,11.2l42.7,3.9L423.6,348.5z"/>
				<path fill="#F5F5F5" d="M364.9,371.6l43.1,4.7c1.1,0.1,2-0.1,2.3-0.5l7.7-15.7l-42.8-4L364.9,371.6z"/>
				<path fill="#F5F5F5" d="M415.6,435.3l5.9-13.1c0.1-0.3-0.3-0.4-0.7-0.5l-81.3-10.1l-8.2,14l83.3,10
					C415.1,435.7,415.5,435.6,415.6,435.3z"/>
				<path fill="#F5F5F5" d="M362,342c-2.8-0.3-5.5,0.3-6.3,1.3l-17.4,22.9c-0.9,1.2,0.9,2.4,4,2.8c3.1,0.4,6.2-0.4,7-1.5l16.5-23.2
					C366.6,343.4,364.9,342.3,362,342z"/>
				<path fill="#F5F5F5" d="M334.4,388.9l9.7-13.6l-11.5-1.3l-10.4,13.8L334.4,388.9z"/>
				<path fill="#F5F5F5" d="M239.5,392.4l85.7,10.5l4.3-6.6l-86-8.9L239.5,392.4z"/>
				<path fill="#DEDFE1" d="M209.9,422.6c11.7,0,22.1-4.2,23.2-9.2c0.9-4.9-7.3-8.8-18.6-8.8c-11.2,0-21.6,3.9-23.1,8.8
					C189.9,418.4,198.2,422.6,209.9,422.6z"/>
				<path fill="#F5F5F5" d="M453.8,351.4c0.1-0.4-0.5-0.7-1.6-0.8l-12.8-1.2c-0.9-0.1-1.9,0.1-2,0.5l-4.9,10.7L449,362
					C450.6,358.4,452.2,354.9,453.8,351.4z"/>
				<path fill="#F5F5F5" d="M422.2,383.2c-0.3,0.4-1.2,0.7-2.3,0.5l-58.7-6.6l-9,13.6l79.1,8.4c0.4,0,0.8,0,0.9-0.3
					c5.7-12.6,11.2-24.7,16.2-35.8l-16.5-1.5L422.2,383.2z"/>
				<path fill="#F5F5F5" d="M312.2,423.3l8.9-14l-86.8-10.8l-1.1,1.3c10.7,2.6,17,7.7,16.1,13.5c-0.1,0.8-0.4,1.5-0.8,2.3
					L312.2,423.3z"/>
				<path fill="#F5F5F5" d="M566.5,505.4c-43.1-5.8-95.2-12.8-150.1-20.4l-5.1,12.7l75.7,16.7c0.1,0,0.3,0,0.4,0h78.4
					c0.5,0,0.8-0.1,0.8-0.4l0.8-8C567.6,505.8,567.1,505.4,566.5,505.4z"/>
				<path fill="#F5F5F5" d="M571,462.7l-60.2-7.3c-0.5,0-0.9,0-1.1,0.3l-7.3,29.2c-0.1,0.3,0.4,0.5,0.9,0.7l64.3,8.5
					c0.5,0,1.1,0,1.1-0.4l3.1-30.4C571.9,463,571.5,462.7,571,462.7z"/>
				<path fill="#F5F5F5" d="M620,468.7l-28.5-3.5c-0.5,0-0.9,0-0.9,0.3l-2,30.6c0,0.3,0.4,0.5,1.1,0.7l50.5,6.6
					c0.7,0.1,1.2-0.1,0.9-0.5l-20.1-33.9C620.8,468.9,620.4,468.7,620,468.7z"/>
				<path fill="#F5F5F5" d="M102.2,405.2l-18.1,24.7c-10-1.3-19.2-2.6-27.4-3.5c-0.1,0-0.1,0-0.1,0l14.3-24.3H71L102.2,405.2z"/>
				<path fill="#F5F5F5" d="M117.8,434.4l20.5-25.5l-33.3-3.4l-18,24.8C96.6,431.7,106.9,432.9,117.8,434.4z"/>
				<path fill="#F5F5F5" d="M128.5,446.1l-68,68.3h42.1l62.9-63.3L128.5,446.1z"/>
				<path fill="#F5F5F5" d="M289.5,496.6l-5.5,9.4c-2.4,4.2,3.4,8.4,11.7,8.4h84l5.1-11.2L305.1,492
					C298.4,491.2,291.4,493.1,289.5,496.6z"/>
				<path fill="#F5F5F5" d="M181.7,453.3l-58.3,61.1h69.1c12.1-20.9,25.9-44.4,32.3-55.2C210,457.2,195.6,455.2,181.7,453.3z"/>
				<path fill="#F5F5F5" d="M273.3,465.7c-15.3-2-30.4-4-45.2-6.1c-0.7,1.2-1.5,2.6-2.3,4c-3.9,6.6-9.2,15.8-14.6,25.4
					c-5.1,8.8-10.3,17.8-14.6,25.4h48.1c5.8,0,11.2-2,13.1-5l23.2-36.7C282.9,469.6,279.4,466.5,273.3,465.7z"/>
				<path fill="#F5F5F5" d="M433.7,513.3l-26.5-5.9l-2.8,7h29.2C434.6,514.4,434.8,513.5,433.7,513.3z"/>
				<path fill="#F5F5F5" d="M594.1,424.8c-0.5,0-0.9,0-0.9,0.3l-2,31.3c0,0.3,0.4,0.5,0.9,0.5l22,2.7c0.7,0,1.1-0.1,0.9-0.5
					l-20.1-34C594.9,425.1,594.5,424.9,594.1,424.8z"/>
				<path fill="#F5F5F5" d="M624.8,513.2l-36-4.9c-0.5,0-1.1,0.1-1.1,0.4l-0.4,4.9c0,0.4,0.7,0.7,1.5,0.7h36.4
					C626.3,514.4,626.1,513.5,624.8,513.2z"/>
				<path fill="#F5F5F5" d="M155.2,323.3l8.9-18.4h-35.9l-8.9,15.1l4.3,1.1L155.2,323.3z"/>
				<path fill="#F5F5F5" d="M189.1,325.6c2.2,0.1,4.5-0.4,4.9-1.2l10.4-18.2c0.4-0.7-0.9-1.2-3.1-1.2h-34.7l-8.8,18.5L189.1,325.6z"
					/>
				<path fill="#F5F5F5" d="M50.9,435.6L4.3,514.3h31.6l73.7-70.9C87.9,440.6,68,437.9,50.9,435.6z"/>
				<path fill="#F5F5F5" d="M509.4,330.2c-0.1,0.3,0.5,0.7,1.6,0.7l10.7,1.1c0.9,0.1,1.8-0.1,1.9-0.4l3.1-13.2l-13.1-1.5
					L509.4,330.2z"/>
				<path fill="#F5F5F5" d="M527.9,312.1C527.9,311.9,527.9,311.9,527.9,312.1l-3.8-6.6c-0.1-0.3-0.9-0.5-1.9-0.5h-4
					c-0.7,0-1.2,0.1-1.3,0.4l-3.2,10.7l13.1,1.5L527.9,312.1z"/>
				<path fill="#F5F5F5" d="M578.7,400.4l-2,13.8c0,0.1,0.4,0.4,0.9,0.5l10.8,1.1c0.5,0,1.1-0.1,0.9-0.4l-8.9-15
					C580.2,400.1,578.7,400.1,578.7,400.4z"/>
				<path fill="#F5F5F5" d="M244.6,312.5c2,0.1,3.9-0.4,4.3-1.1l3-5.3c0.4-0.7-1.1-1.2-3.2-1.2h-6.9c-0.8,2-1.6,4.6-2.7,7.3
					L244.6,312.5z"/>
				<path fill="#F5F5F5" d="M222.9,304.9c-1.9,0-3.5,0.5-3.9,1.1l-2.2,4c-0.4,0.5,0.8,1.2,2.7,1.2l17.1,0.8c0.9-2.7,1.9-5.1,2.7-7.2
					H222.9z"/>
				<path fill="#F5F5F5" d="M134.6,327.5l-19-1.3l-13.9,23.5h0.3L134.6,327.5z"/>
				<path fill="#F5F5F5" d="M400.8,320.5l62.6,5.9c0.9,0,1.8-0.1,1.9-0.4c1.6-3.5,3.1-6.9,4.5-9.9l-65.2-4l-5.1,7.7
					C399.1,320,399.8,320.3,400.8,320.5z"/>
				<path fill="#F5F5F5" d="M474.5,305.6c0.1-0.4-0.8-0.7-1.8-0.7h-62.2c-0.7,0-1.3,0.1-1.5,0.4l-3.9,5.9l65.1,4
					C471.8,311.5,473.4,308.3,474.5,305.6z"/>
				<path fill="#F5F5F5" d="M494,335.3c0.1-0.3-0.5-0.7-1.6-0.8l-12.3-1.2c-0.9-0.1-1.8,0.1-1.9,0.4c-0.8,1.9-1.6,3.9-2.4,5.9
					l16.2,1.5L494,335.3z"/>
				<path fill="#F5F5F5" d="M473,346.8c-0.1,0.4,0.5,0.7,1.6,0.8l13.2,1.2c0.9,0.1,1.9-0.1,2-0.5l2-6.1l-16.3-1.5
					C474.6,342.7,473.8,344.7,473,346.8z"/>
				<path fill="#F5F5F5" d="M538.6,333.4c1.1,0.1,2-0.1,1.9-0.5c-0.4-0.7-3.4-0.8-3.5-0.1C536.8,333,537.5,333.3,538.6,333.4z"/>
				<path fill="#F5F5F5" d="M503.6,349.6c-0.1,0.4,0.7,0.7,1.6,0.8l13.2,1.2c0.9,0.1,1.9-0.1,2-0.5l0.8-6.1l-15.9-1.5L503.6,349.6z"
					/>
				<path fill="#F5F5F5" d="M522.3,338c0.1-0.3-0.7-0.7-1.6-0.7l-11.3-1.1c-0.9-0.1-1.9,0.1-1.9,0.4l-1.8,5.9l15.8,1.5L522.3,338z"
					/>
				<path fill="#F5F5F5" d="M393.6,305.6c0.3-0.4-0.5-0.7-1.6-0.7h-7.2l-10.4,13.6l9.6,0.5L393.6,305.6z"/>
				<path fill="#F5F5F5" d="M484.1,319.4l14.8,1.3l3.4-9.9l-14.2-1.5C487,312.4,485.7,315.6,484.1,319.4z"/>
				<path fill="#F5F5F5" d="M504.2,305.6c0.1-0.4-0.8-0.7-1.9-0.7h-11.1c-0.7,0-1.3,0.1-1.3,0.4c-0.4,1.1-0.8,2.2-1.3,3.4l14.2,1.3
					L504.2,305.6z"/>
				<path fill="#F5F5F5" d="M480.9,327.3c-0.1,0.3,0.5,0.7,1.5,0.7l12,1.1c0.9,0.1,1.8-0.1,1.9-0.4l2.4-7.2l-14.8-1.3
					C482.8,322.5,481.9,324.9,480.9,327.3z"/>
				<path fill="#DEDFE1" d="M192.4,366.3l78.4-3.6c1.6,0,3-0.5,3.5-1.1l27.3-29c0.7-0.7,2.7-1.1,4.7-0.9l17.4,1.8
					c2,0.1,4-0.1,4.6-0.9l8.1-8.9c0.7-0.8-0.8-1.5-3.1-1.6l-53.9-2.6c-2-0.1-4,0.4-4.3,1.1l-6.2,14c-0.3,0.7-2.2,1.2-4.2,1.2
					l-57-0.9c-2,0-4,0.5-4.5,1.2l-15,28.6C187.8,365.5,189.7,366.5,192.4,366.3z"/>
				<path fill="#F5F5F5" d="M372,304.9h-5.7l-11.1,12.8l6.5,0.3L372,304.9z"/>
				<path fill="#F5F5F5" d="M210.3,330.2l20.5,0.3c1.1-3.5,2.7-8.4,4.2-13.2l-17.4-0.8c-2-0.1-4.2,0.4-4.5,1.1l-5.8,11.2
					C206.7,329.5,208.1,330.2,210.3,330.2z"/>
				<path fill="#F5F5F5" d="M253.9,330.8c2,0,3.8-0.5,4.2-1.2l4.7-9.9c0.3-0.7-0.9-1.2-2.8-1.3l-22.7-1.1c-1.5,4.3-2.8,8.9-4.2,13.2
					L253.9,330.8z"/>
				<path fill="#F5F5F5" d="M170.9,356.5c2.3,0.3,5-0.4,5.5-1.3l5.3-9.3l-52.4-5l-14.6,10.3L170.9,356.5z"/>
				<path fill="#F5F5F5" d="M189.4,332.5c0.4-0.7-0.7-1.2-2.6-1.3l-36.6-2.6c-1.8-0.1-3.8,0.3-4.7,0.9l-14.8,10.4l51.7,5
					L189.4,332.5z"/>
				<path fill="#F5F5F5" d="M263.8,313.4l75.6,3.5c1.8,0,3.4-0.3,3.9-0.8l10.3-11.2h-85.6c-1.8,0-3.4,0.4-3.6,1.1l-3.2,6.1
					C260.7,312.8,262,313.4,263.8,313.4z"/>
				<path fill="#F5F5F5" d="M536.3,353.3l14.6,1.3c1.2,0.1,2.2-0.3,1.9-0.7l-3.6-6.3l-13.9-1.3l-0.7,6.1
					C534.5,352.8,535.3,353.3,536.3,353.3z"/>
				<path fill="#F5F5F5" d="M544.7,340c-0.1-0.3-0.8-0.5-1.6-0.5l-5.1-0.5c-0.9-0.1-1.9,0.1-1.9,0.5l-0.7,5.9l13.2,1.2L544.7,340z"
					/>
			</g>
		</g>
	</g>
	<g>
		<g>
			<defs>
				<rect id="SVGID_3_" x="227.4" y="137.7" width="190.3" height="253.8"/>
			</defs>
			<clipPath id="SVGID_4_">
				<use xlink:href="#SVGID_3_"  overflow="visible"/>
			</clipPath>
			<g clip-path="url(#SVGID_4_)">
				<path fill="#DEDFE1" d="M312.9,386.3c-72.1-104.5-85.4-115.1-85.4-153.5c0-52.5,42.7-95.2,95.2-95.2s95.2,42.7,95.2,95.2
					c0,38.3-13.4,49.1-85.4,153.5C327.6,393.1,317.6,393.1,312.9,386.3z"/>
			</g>
		</g>
	</g>
	<path fill="#F5F5F5" d="M368.3,255c1.8,1.8,1.8,4.6,0,6.4l-14.8,14.8c-1.8,1.8-4.6,1.8-6.4,0l-24.4-24.6l-24.4,24.6
		c-1.8,1.8-4.6,1.8-6.4,0l-14.8-14.8c-1.8-1.8-1.8-4.6,0-6.4l24.6-24.4l-24.6-24.4c-1.8-1.8-1.8-4.6,0-6.4L292,185
		c1.8-1.8,4.6-1.8,6.4,0l24.4,24.6l24.4-24.6c1.8-1.8,4.6-1.8,6.4,0l14.8,14.8c1.8,1.8,1.8,4.6,0,6.4l-24.6,24.4L368.3,255z"/>
</g>
</svg>
