<?xml version="1.0" encoding="utf-8"?>
<!-- Generator: Adobe Illustrator 18.1.1, SVG Export Plug-In . SVG Version: 6.00 Build 0)  -->
<svg version="1.1" id="Camada_1" xmlns="http://www.w3.org/2000/svg" xmlns:xlink="http://www.w3.org/1999/xlink" x="0px" y="0px"
	 viewBox="-311 311.7 37.6 25.3" enable-background="new -311 311.7 37.6 25.3" xml:space="preserve">
<g>
	<path fill="#E8A323" d="M-305.3,320.4h23.5l-4,3.3c-0.4,0.4-0.5,1-0.1,1.4c0.2,0.2,0.5,0.4,0.8,0.4c0.2,0,0.4-0.1,0.6-0.2l6.1-5.1
		c0.2-0.2,0.4-0.5,0.4-0.8s-0.1-0.6-0.4-0.8l-6.1-5.1c-0.4-0.4-1.1-0.3-1.4,0.1c-0.4,0.4-0.3,1.1,0.1,1.4l3.9,3.3h-23.4
		c-0.6,0-1,0.4-1,1S-305.8,320.4-305.3,320.4z"/>
	<path fill="#E8A323" d="M-279.1,328.3h-23.5l4-3.3c0.4-0.4,0.5-1,0.1-1.4c-0.4-0.4-1-0.5-1.4-0.1l-6.1,5.1
		c-0.2,0.2-0.4,0.5-0.4,0.8s0.1,0.6,0.4,0.8l6.1,5.1c0.2,0.2,0.4,0.2,0.6,0.2c0.3,0,0.6-0.1,0.8-0.4c0.4-0.4,0.3-1.1-0.1-1.4
		l-3.9-3.3h23.4c0.6,0,1-0.4,1-1S-278.5,328.3-279.1,328.3z"/>
</g>
</svg>
