<?xml version="1.0" encoding="utf-8"?>
<!-- Generator: Adobe Illustrator 18.1.1, SVG Export Plug-In . SVG Version: 6.00 Build 0)  -->
<svg version="1.1" id="Camada_1" xmlns="http://www.w3.org/2000/svg" xmlns:xlink="http://www.w3.org/1999/xlink" x="0px" y="0px"
	 viewBox="0 0 652 652" enable-background="new 0 0 652 652" xml:space="preserve">
<g>
	<g>
		<g>
			<path d="M451,427.1l-226-226c-3-3-7.3-4.7-12-4.7s-9,1.7-12,4.7s-4.7,7.3-4.7,12c0,4.7,1.7,9,4.7,12l226,226c3,3,7.3,4.7,12,4.7
				s9-1.7,12-4.7c3-3,4.7-7.3,4.7-12S454,429.9,451,427.1z"/>
			<path d="M439,458.1c-5.3,0-10.3-2-13.7-5.3l-226-226c-3.3-3.3-5.3-8.3-5.3-13.7c0-5.3,2-10.3,5.3-13.7c3.3-3.3,8.3-5.3,13.7-5.3
				c5.3,0,10.3,2,13.7,5.3l226,226c3.3,3.3,5.3,8.3,5.3,13.7c0,5.3-2,10.3-5.3,13.7C449.3,456.2,444.3,458.1,439,458.1z M213,198.7
				c-4,0-7.8,1.5-10.3,4c-2.5,2.5-4,6.3-4,10.3s1.5,7.8,4,10.3l226,226c2.5,2.5,6.3,4,10.3,4s7.8-1.5,10.3-4c2.5-2.5,4-6.3,4-10.3
				s-1.5-7.8-4-10.3l-226-226C220.8,200.2,217,198.7,213,198.7z"/>
		</g>
		<g>
			<path d="M451,201.1c-3-3-7.3-4.7-12-4.7s-9,1.7-12,4.7l-226,226l-0.3,0.3l-0.3,0.3c-5.7,8.5-5.3,17.3,0.7,23.3
				c3,3,7.3,4.7,12,4.7c4.7,0,9-1.7,12-4.7l226-226c3-3,4.7-7.3,4.7-12C455.7,208.4,454,203.9,451,201.1z"/>
			<path d="M213,458.1c-5.3,0-10.3-2-13.7-5.3c-6.8-6.8-7.2-16.8-0.8-26.3l0.5-0.8l0.3-0.3l226-226c3.3-3.3,8.3-5.3,13.7-5.3
				c5.3,0,10.3,2,13.7,5.3c3.3,3.3,5.3,8.3,5.3,13.7c0,5.3-2,10.3-5.3,13.7L226.7,453C223.3,456.2,218.3,458.1,213,458.1z
				 M202.5,428.9l-0.2,0.2c-5,7.5-4.8,15.2,0.3,20.3c2.5,2.5,6.3,4,10.3,4s7.8-1.5,10.3-4l226-226c2.5-2.5,4-6.3,4-10.3
				c0-4-1.5-7.8-4-10.3c-2.5-2.5-6.3-4-10.3-4s-7.8,1.5-10.3,4L202.5,428.9z"/>
		</g>
	</g>
</g>
</svg>
