<?xml version="1.0" encoding="utf-8"?>
<!-- Generator: Adobe Illustrator 18.1.1, SVG Export Plug-In . SVG Version: 6.00 Build 0)  -->
<svg version="1.1" id="Camada_1" xmlns="http://www.w3.org/2000/svg" xmlns:xlink="http://www.w3.org/1999/xlink" x="0px" y="0px"
	 viewBox="-300 301 50 50" enable-background="new -300 301 50 50" xml:space="preserve">
<path fill="#F75B5B" d="M-275,311L-275,311c8.3,0,15,6.7,15,15l0,0c0,8.3-6.7,15-15,15l0,0c-8.3,0-15-6.7-15-15l0,0
	C-290,317.7-283.3,311-275,311z"/>
<path fill="#FFFFFF" d="M-279.8,320.6l10.4,10.4c0.2,0.2,0.2,0.6,0,0.8l0,0c-0.2,0.2-0.6,0.2-0.8,0l-10.4-10.4
	c-0.2-0.2-0.2-0.6,0-0.8l0,0C-280.4,320.4-280,320.4-279.8,320.6z"/>
<path fill="#FFFFFF" d="M-280.6,331l10.4-10.4c0.2-0.2,0.6-0.2,0.8,0l0,0c0.2,0.2,0.2,0.6,0,0.8l-10.4,10.4c-0.2,0.2-0.6,0.2-0.8,0
	l0,0C-280.8,331.6-280.8,331.3-280.6,331z"/>
</svg>
