<?xml version="1.0" encoding="utf-8"?>
<!-- Generator: Adobe Illustrator 18.1.1, SVG Export Plug-In . SVG Version: 6.00 Build 0)  -->
<svg version="1.1" id="Camada_1" xmlns="http://www.w3.org/2000/svg" xmlns:xlink="http://www.w3.org/1999/xlink" x="0px" y="0px"
	 viewBox="130.4 130.4 391.2 391.2" enable-background="new 130.4 130.4 391.2 391.2" xml:space="preserve">
<g>
	<path fill="#F75B5B" d="M326,130.4L326,130.4c108.2,0,195.6,87.4,195.6,195.6l0,0c0,108.2-87.4,195.6-195.6,195.6l0,0
		c-108.2,0-195.6-87.4-195.6-195.6l0,0C130.4,217.8,217.8,130.4,326,130.4z"/>
	<g>
		<path fill="#FFFFFF" d="M401,389.2L265.4,253.6c-1.8-1.8-4.4-2.8-7.2-2.8c-2.8,0-5.4,1-7.2,2.8c-1.8,1.8-2.8,4.4-2.8,7.2
			c0,2.8,1,5.4,2.8,7.2l135.6,135.6c1.8,1.8,4.4,2.8,7.2,2.8c2.8,0,5.4-1,7.2-2.8c1.8-1.8,2.8-4.4,2.8-7.2S402.8,390.9,401,389.2z"
			/>
		<path fill="#FFFFFF" d="M393.8,407.8c-3.2,0-6.2-1.2-8.2-3.2L250,269c-2-2-3.2-5-3.2-8.2c0-3.2,1.2-6.2,3.2-8.2c2-2,5-3.2,8.2-3.2
			c3.2,0,6.2,1.2,8.2,3.2L402,388.2c2,2,3.2,5,3.2,8.2s-1.2,6.2-3.2,8.2C400,406.7,397,407.8,393.8,407.8z M258.2,252.2
			c-2.4,0-4.7,0.9-6.2,2.4c-1.5,1.5-2.4,3.8-2.4,6.2c0,2.4,0.9,4.7,2.4,6.2l135.6,135.6c1.5,1.5,3.8,2.4,6.2,2.4
			c2.4,0,4.7-0.9,6.2-2.4s2.4-3.8,2.4-6.2s-0.9-4.7-2.4-6.2L264.4,254.6C262.9,253.1,260.6,252.2,258.2,252.2z"/>
	</g>
	<g>
		<path fill="#FFFFFF" d="M401,253.6c-1.8-1.8-4.4-2.8-7.2-2.8c-2.8,0-5.4,1-7.2,2.8L251,389.2l-0.2,0.2l-0.2,0.2
			c-3.4,5.1-3.2,10.4,0.4,14c1.8,1.8,4.4,2.8,7.2,2.8c2.8,0,5.4-1,7.2-2.8L401,268c1.8-1.8,2.8-4.4,2.8-7.2
			C403.8,258,402.8,255.3,401,253.6z"/>
		<path fill="#FFFFFF" d="M258.2,407.8c-3.2,0-6.2-1.2-8.2-3.2c-4.1-4.1-4.3-10.1-0.5-15.8l0.3-0.5l0.2-0.2l135.6-135.6
			c2-2,5-3.2,8.2-3.2c3.2,0,6.2,1.2,8.2,3.2c2,2,3.2,5,3.2,8.2c0,3.2-1.2,6.2-3.2,8.2L266.4,404.6
			C264.4,406.7,261.4,407.8,258.2,407.8z M251.9,390.3l-0.1,0.1c-3,4.5-2.9,9.1,0.2,12.2c1.5,1.5,3.8,2.4,6.2,2.4
			c2.4,0,4.7-0.9,6.2-2.4L400,267c1.5-1.5,2.4-3.8,2.4-6.2c0-2.4-0.9-4.7-2.4-6.2c-1.5-1.5-3.8-2.4-6.2-2.4c-2.4,0-4.7,0.9-6.2,2.4
			L251.9,390.3z"/>
	</g>
</g>
</svg>
