<svg width="483" height="287" viewBox="0 0 483 287" fill="none" xmlns="http://www.w3.org/2000/svg">
<g clip-path="url(#clip0)" filter="url(#filter0_d)">
<path d="M193.935 124L190.024 131.198L189.549 132.125L185.849 131.993L186.378 131.021L190.288 124H193.935Z" fill="#E8E1D0"/>
<path d="M203.13 132.125L199.484 131.993L193.724 144.225L146.53 143.474L145.843 144.843L197 145.682L203.13 132.125Z" fill="#E8E1D0"/>
<path d="M457.275 240.581L434.128 237.799L436.242 210.199L436.348 208.698L431.38 208.124L431.222 209.67L428.685 237.137L375.256 230.689L382.179 204.37L382.443 203.399L382.707 202.383L392.907 161.977L411.879 163.744L410.928 162.11L393.171 160.476L394.651 147.316L394.757 146.61L394.915 145.947L396.553 137.734L393.7 132.876L390.952 145.55L390.793 146.256L390.687 146.919L388.996 160.034L369.971 158.268L373.987 145.285L374.41 143.96L380.646 124H376.894L370.499 143.651L370.077 144.976L365.849 157.915L346.137 156.06L342.067 155.662L322.778 153.852L328.75 140.957L329.172 139.986L325.367 139.632L324.892 140.604L318.709 153.499L282.032 150.098L280.024 149.922L278.121 149.745L263.905 148.332L273.101 136.365L274.052 135.128L282.666 124H278.914L270.3 134.996L269.349 136.232L260.153 147.979L248.791 146.875L258.673 135.746L259.783 134.51L269.032 124H265.227L255.925 134.289L254.816 135.526L244.986 146.521L226.806 144.755L205.403 167.718L134.164 171.074L130.465 171.251L130.359 172.929L133.266 172.796L203.817 169.44L191.662 182.467L190.5 183.704L194.675 184.234L195.89 182.909L208.204 169.484L240.494 173.105L230.189 186.221L229.184 187.501L233.518 188.031L234.575 186.662L244.669 173.503L260.417 175.269L264.645 175.755L310.306 180.877L322.144 155.353L341.486 157.164L345.608 157.561L388.785 161.58L378.004 201.897L377.74 202.825L377.475 203.84L370.235 230.071L317.599 223.712L312.578 223.094L240.23 214.35L235.473 213.776L180.142 207.064C180.882 206.137 181.357 205.209 181.569 204.282C182.308 200.175 177.288 196.554 168.991 195.053L172.003 191.432L243.823 200.396L248.368 200.97L318.444 209.67L322.038 210.111L322.884 208.08L319.29 207.638L249.531 199.027L245.039 198.453L173.641 189.665L179.19 183.041L180.247 181.761L176.02 181.319L174.91 182.644L164.763 194.567C163.336 194.434 161.856 194.39 160.377 194.39C150.758 194.39 141.457 196.907 136.754 200.705L114.663 198.497L110.277 198.056L55.1567 192.447L53.994 194.434L108.639 199.954L113.078 200.396L134.851 202.604C134.428 203.134 134.164 203.708 133.953 204.282C132.632 208.389 136.912 212.142 145.104 213.909L131.152 228.128L128.932 230.424L81.2635 279H87.3938L133.741 231.043L135.961 228.746L149.596 214.615C151.392 214.792 153.242 214.88 155.092 214.88C164.287 214.88 173.219 212.584 178.081 209.051L234.205 215.896L238.961 216.47L311.521 225.302L316.542 225.92L369.495 232.368L362.149 258.907L361.621 260.895L367.223 261.689L367.751 259.614L374.727 232.942L428.526 239.477L425.937 267.342L425.673 270.168L424.88 278.912H430.957L431.591 270.963L431.803 268.137L433.97 240.14L458.861 243.187L457.275 240.581ZM209.684 167.85L229.343 146.433L243.77 147.846L224.27 169.484L209.684 167.85ZM241.762 171.427L228.392 169.926L247.628 148.199L259.096 149.348L241.762 171.427ZM306.765 178.67L265.755 174.121L261.58 173.635L245.937 171.869L262.954 149.701L277.276 151.114L279.284 151.335L281.187 151.511L318.127 154.956L306.765 178.67ZM176.812 204.282C175.914 208.875 166.401 212.717 155.62 212.717C144.839 212.717 137.282 208.875 138.762 204.282C140.189 199.822 149.596 196.289 159.848 196.289C170.101 196.289 177.711 199.822 176.812 204.282ZM422.819 182.246L418.697 206.269L418.432 207.726L423.4 208.345L423.664 206.799L426.518 188.473L422.819 182.246Z" fill="#E8E1D0"/>
<path d="M125.867 182.688L66.7832 177.565L88.9264 160.476L85.1742 160.078L60.4943 178.89L124.282 184.454L125.867 182.688Z" fill="#E8E1D0"/>
<path d="M109.801 138.926L106.366 138.529L75.2388 159.902L78.8853 160.388L109.801 138.926Z" fill="#E8E1D0"/>
<path d="M350.206 279H335.778L297.622 270.477L294.716 269.859L292.073 269.461L213.489 258.598L209.525 258.024L211.216 255.375L215.127 255.904L293.342 266.679L296.513 267.121L298.838 267.651L350.206 279Z" fill="#E8E1D0"/>
<path d="M243.823 200.396L235.526 213.821L240.282 214.395L248.368 200.97L243.823 200.396ZM243.823 200.396L235.526 213.821L240.282 214.395L248.368 200.97L243.823 200.396ZM243.823 200.396L235.526 213.821L240.282 214.395L248.368 200.97L243.823 200.396ZM243.823 200.396L235.526 213.821L240.282 214.395L248.368 200.97L243.823 200.396ZM243.823 200.396L235.526 213.821L240.282 214.395L248.368 200.97L243.823 200.396ZM477.199 274.275C461.609 272.199 446.495 270.168 431.803 268.225C429.847 267.96 427.892 267.695 425.937 267.43C405.696 264.736 386.301 262.131 367.751 259.658C365.849 259.393 363.999 259.172 362.149 258.907C342.384 256.258 323.623 253.741 305.761 251.4C309.196 243.319 312.842 234.708 316.542 225.92C316.859 225.17 317.176 224.419 317.493 223.712C321.087 215.322 324.68 206.843 328.168 198.541L377.422 203.84L382.284 204.37L431.327 209.67L436.348 210.199L439.624 210.553L438.303 208.345L423.664 206.799L418.749 206.269L382.76 202.427L377.951 201.897L328.961 196.642C334.986 182.467 340.693 169.043 345.555 157.561C345.767 157.075 345.978 156.59 346.189 156.104C348.145 151.423 349.994 147.095 351.633 143.209L370.077 144.976L374.04 145.373L390.687 146.963L394.704 147.36L402.684 148.111L401.838 146.654L394.968 145.991L391.004 145.594L374.463 144.048L370.552 143.695L352.214 141.929C355.438 134.333 358.027 128.151 359.771 124H355.966C354.169 128.107 351.527 134.157 348.303 141.531L291.598 136.144L299.895 124H296.143L287.898 135.835L274.105 135.172L270.3 134.996L259.73 134.51L255.925 134.333L190.024 131.242L186.378 131.066L156.466 129.652L159.531 124H155.937L146.531 140.957L89.8777 137.16L88.0809 136.674L87.1296 138.219L87.7109 138.352L104.886 139.5L108.533 139.765L145.791 142.282L133.583 164.362L80.5236 159.239L76.7714 158.886L75.0803 158.709L74.1291 160.299L83.6945 161.226L87.4995 161.624L132.632 166.084L125.867 178.316L122.643 182.423L121.216 184.189L110.224 198.011L108.639 199.999L90.5647 222.741C71.1696 220.179 54.6811 217.972 41.0992 216.161L39.7251 218.457C53.8355 220.356 70.3769 222.564 88.715 225.037L33.3306 279H39.4081L93.3656 225.611C104.622 227.113 116.513 228.702 128.932 230.38C130.518 230.601 132.103 230.822 133.688 230.999C160.06 234.531 188.597 238.373 217.769 242.303L195.045 279H201.122L213.489 258.554L215.127 255.86L222.896 242.966C248.21 246.366 273.999 249.811 299.208 253.211C297.094 258.024 295.086 262.528 293.289 266.635C292.866 267.607 292.443 268.534 292.073 269.417C290.488 272.95 289.114 276.174 287.898 278.956H293.976C295.086 276.35 296.301 273.524 297.569 270.433C297.992 269.506 298.362 268.534 298.785 267.563C300.582 263.323 302.537 258.775 304.598 253.917C349.466 259.967 391.903 265.664 425.62 270.168C427.628 270.433 429.583 270.698 431.539 270.963C451.092 273.613 467.369 275.776 478.996 277.366L477.199 274.275ZM290.752 137.38L324.945 140.648L328.75 141.001L347.722 142.812C346.031 146.698 344.128 151.026 342.067 155.707C341.856 156.192 341.645 156.678 341.433 157.164C336.413 168.645 330.494 182.026 324.31 196.157L255.714 188.826L264.592 175.755L265.702 174.121L281.081 151.556L282.032 150.187L290.752 137.38ZM148.274 144.887L149.014 143.519L155.832 130.889L199.061 132.92L202.708 133.097L254.868 135.57L258.673 135.746L269.349 136.232L273.154 136.409L287.053 137.071L278.227 149.789L277.276 151.158L261.633 173.635L260.47 175.269L251.328 188.34L234.575 186.662L230.189 186.221L195.943 182.821L191.663 182.379L131.31 176.373L133.266 172.752L134.164 171.074L148.274 144.887ZM219.355 239.875C188.069 235.679 160.271 232.014 135.908 228.746C134.323 228.526 132.737 228.305 131.152 228.128C118.204 226.406 106.208 224.816 95.2153 223.359L113.078 200.44L114.61 198.453L130.095 178.537L130.148 178.493L130.359 178.095L174.857 182.556L179.085 182.997L250.112 190.107L244.986 198.409L243.77 200.352L235.473 213.776L234.152 215.896L219.355 239.875ZM300.37 250.65C272.995 246.984 247.681 243.628 224.428 240.537L238.961 216.47L240.23 214.35L248.315 200.926L249.478 198.983L254.551 190.593L323.465 198.011C322.091 201.191 320.664 204.37 319.237 207.594C318.973 208.256 318.656 208.963 318.339 209.625C316.383 214.085 314.375 218.59 312.42 223.094C312.103 223.845 311.785 224.595 311.468 225.302C307.663 234.046 303.911 242.657 300.37 250.65ZM243.823 200.396L235.526 213.821L240.282 214.395L248.368 200.97L243.823 200.396ZM243.823 200.396L235.526 213.821L240.282 214.395L248.368 200.97L243.823 200.396ZM243.823 200.396L235.526 213.821L240.282 214.395L248.368 200.97L243.823 200.396ZM243.823 200.396L235.526 213.821L240.282 214.395L248.368 200.97L243.823 200.396ZM243.823 200.396L235.526 213.821L240.282 214.395L248.368 200.97L243.823 200.396Z" fill="#FFCC33"/>
<path d="M237.112 148.288L233.888 147.979C232.408 147.846 230.876 148.111 230.4 148.641L214.757 165.907C214.176 166.526 215.074 167.188 216.712 167.365L219.513 167.674C221.099 167.85 222.79 167.497 223.318 166.923L239.12 149.612C239.596 149.038 238.697 148.42 237.112 148.288Z" fill="#E8E1D0"/>
<path d="M255.344 146.433C256.824 146.566 258.356 146.301 258.779 145.771L265.438 137.38L260.365 137.16L253.336 145.197C252.913 145.727 253.811 146.301 255.344 146.433Z" fill="#E8E1D0"/>
<path d="M252.226 149.789C250.746 149.657 249.214 149.922 248.738 150.452L233.465 167.939C232.937 168.557 233.835 169.263 235.473 169.44L236.689 169.573C238.327 169.749 240.018 169.396 240.494 168.778L254.551 151.114C254.974 150.54 254.076 149.966 252.49 149.833L252.226 149.789Z" fill="#E8E1D0"/>
<path d="M326.477 152.704C326.371 152.969 326.847 153.234 327.587 153.278L337.205 154.161C337.892 154.205 338.579 154.073 338.685 153.808C339.372 152.262 340.059 150.761 340.746 149.303L328.538 148.155L326.477 152.704Z" fill="#E8E1D0"/>
<path d="M343.071 144.225C343.177 144.004 342.702 143.739 342.015 143.651L332.343 142.723C331.656 142.635 330.969 142.812 330.864 143.033L328.855 147.493L341.063 148.641C341.75 147.139 342.437 145.638 343.071 144.225Z" fill="#E8E1D0"/>
<path d="M282.296 138.175L275.056 137.822L267.605 147.625L275.056 148.376L282.296 138.175Z" fill="#E8E1D0"/>
<path d="M286.683 149.48L315.009 152.085C315.696 152.13 316.383 151.997 316.489 151.732L318.709 147.228L289.959 144.534L286.683 149.48Z" fill="#E8E1D0"/>
<path d="M321.245 142.105C321.351 141.884 320.875 141.62 320.241 141.575L294.874 139.147C294.187 139.102 293.553 139.191 293.395 139.456L290.435 143.872L319.079 146.565L321.245 142.105Z" fill="#E8E1D0"/>
<path d="M209.208 172.045L200.752 181.407L228.339 184.145L235.526 175.092C236.055 174.43 235.103 173.768 233.465 173.547L213.119 171.251C211.48 171.074 209.736 171.427 209.208 172.045Z" fill="#E8E1D0"/>
<path d="M372.508 205.342L332.66 201.014C332.291 200.97 331.973 201.059 331.921 201.191L323.306 222.299C323.254 222.476 323.518 222.653 323.888 222.697L366.06 227.775C366.43 227.819 366.8 227.731 366.853 227.554L373.142 205.695C373.195 205.563 372.878 205.386 372.508 205.342Z" fill="#B1DF71"/>
<path d="M317.335 199.38L257.987 192.933L254.921 198.144L314.587 205.474C314.957 205.519 315.274 205.43 315.379 205.298L317.916 199.778C317.916 199.557 317.705 199.425 317.335 199.38Z" fill="#E8E1D0"/>
<path d="M239.12 239.831C256.982 242.215 276.008 244.732 296.195 247.382L305.761 226.362L242.819 218.678L233.254 234.885C231.985 237.049 234.575 239.257 239.12 239.831Z" fill="#E8E1D0"/>
<path d="M380.435 229.541L424.193 234.796C424.616 234.84 424.933 234.752 424.933 234.575L427.311 211.612C427.311 211.436 427.047 211.303 426.624 211.259L386.037 206.843C385.667 206.799 385.35 206.887 385.297 207.02L379.748 229.099C379.748 229.276 380.012 229.497 380.435 229.541Z" fill="#E8E1D0"/>
<path d="M197.423 172.62C198.216 171.78 196.577 170.941 194.305 171.074L139.608 173.679C138.075 173.768 136.807 174.209 136.489 174.827L136.384 175.048L190.077 180.392L197.423 172.62Z" fill="#E8E1D0"/>
<path d="M140.453 214.704C132.79 212.451 128.932 208.521 130.412 204.282C130.465 204.105 130.518 203.973 130.623 203.796L116.407 202.339L101.663 221.637C110.488 222.785 119.895 224.065 129.936 225.346L140.453 214.704Z" fill="#E8E1D0"/>
<path d="M218.298 232.853L228.445 216.911L179.455 210.906C173.641 214.35 164.287 216.514 154.669 216.514C153.665 216.514 152.661 216.47 151.657 216.426L141.669 226.892C161.434 229.497 183.365 232.411 207.675 235.635C212.167 236.298 216.977 235.017 218.298 232.853Z" fill="#E8E1D0"/>
<path d="M88.4508 163.39L71.4866 176.55L93.5242 178.449L105.468 165.068L88.4508 163.39Z" fill="#E8E1D0"/>
<path d="M119.472 180.701L121.586 178.095L127.188 168.248C127.505 167.674 126.765 167.188 125.339 167.055L107.423 165.289L95.6381 178.669L119.472 180.701Z" fill="#E8E1D0"/>
<path d="M115.879 185.161L62.1326 180.436L55.8966 190.946L107 196.113L115.879 185.161Z" fill="#E8E1D0"/>
<path d="M73.0721 161.845L67.8401 170.765L78.8325 162.419L73.0721 161.845Z" fill="#E8E1D0"/>
<path d="M385.085 162.904C385.138 162.64 384.61 162.33 383.817 162.286L350.523 159.151C349.783 159.063 349.149 159.239 349.043 159.504C347.986 162.065 346.929 164.715 345.82 167.409L382.919 170.853L385.085 162.904Z" fill="#E8E1D0"/>
<path d="M382.654 171.648L345.45 168.204C343.6 172.752 341.645 177.565 339.583 182.511L378.427 186.839L382.654 171.648Z" fill="#E8E1D0"/>
<path d="M334.51 195.008C334.457 195.141 334.722 195.317 335.039 195.362L374.252 199.557C374.622 199.601 374.939 199.513 374.939 199.38L378.162 187.766L339.214 183.438C337.734 187.148 336.096 191.034 334.51 195.008Z" fill="#E8E1D0"/>
<path d="M135.274 198.939C141.034 195.229 150.758 192.889 160.694 192.889C161.275 192.889 161.909 192.889 162.491 192.933L170.206 184.013L133.266 180.259L120.159 197.393L135.274 198.939Z" fill="#E8E1D0"/>
<path d="M418.274 174.121H418.063L393.858 171.869L395.761 163.92C395.813 163.655 396.5 163.479 397.24 163.567L411.826 164.936C412.196 164.98 412.513 165.068 412.778 165.157C412.989 165.245 413.095 165.333 413.148 165.422L418.274 174.121Z" fill="#E8E1D0"/>
<path d="M420.176 177.521L420.124 177.742L417.64 191.166L389.842 188.075L393.541 172.664L418.485 174.96H418.697L420.071 177.3C420.176 177.389 420.229 177.477 420.176 177.521Z" fill="#E8E1D0"/>
<path d="M386.882 200.573C386.829 200.705 387.147 200.882 387.516 200.926L414.733 203.841C415.103 203.885 415.42 203.796 415.42 203.664L417.534 192.094L389.683 189.003L386.882 200.573Z" fill="#E8E1D0"/>
<path d="M320.77 228.526L312.314 249.148C312.208 249.325 312.525 249.545 312.895 249.59L357.922 255.551C358.344 255.595 358.714 255.507 358.767 255.286L364.95 233.913C365.003 233.736 364.739 233.56 364.316 233.516L321.562 228.305C321.192 228.261 320.823 228.349 320.77 228.526Z" fill="#E8E1D0"/>
<path d="M224.111 250.384C222.737 252.725 225.432 255.11 230.189 255.772L288.744 263.765L292.708 255.11C273.629 252.548 254.287 249.899 235.103 247.293C230.347 246.719 225.432 248.088 224.111 250.384Z" fill="#E8E1D0"/>
<path d="M314.322 156.236C314.428 155.971 313.952 155.706 313.213 155.618L284.358 152.924L278.861 161.182L310.464 164.097L314.322 156.236Z" fill="#E8E1D0"/>
<path d="M270.776 173.37L302.696 176.903C303.488 176.992 304.228 176.815 304.387 176.506L310.094 164.892L278.386 161.933L270.776 173.37Z" fill="#E8E1D0"/>
<path d="M308.403 220.533L312.79 210.817C312.842 210.641 312.631 210.508 312.261 210.464L252.015 202.957L245.884 213.335L307.558 220.753C307.981 220.798 308.298 220.709 308.403 220.533Z" fill="#E8E1D0"/>
<path d="M268.715 151.423C266.654 151.202 264.592 151.644 264.011 152.395L251.116 169.44C250.429 170.323 251.803 171.251 254.129 171.516C256.401 171.781 258.726 171.251 259.361 170.412L271.568 153.234C272.15 152.439 270.828 151.644 268.715 151.423Z" fill="#E8E1D0"/>
<path d="M248.157 186.132L255.344 176.02L246.888 175.048L239.173 185.249L248.157 186.132Z" fill="#E8E1D0"/>
<path d="M177.922 188.694L241.392 196.466L244.563 191.52L180.882 185.073L177.922 188.694Z" fill="#E8E1D0"/>
<path d="M156.043 211.127C164.763 211.127 172.479 208.036 173.271 204.326C174.011 200.705 167.828 197.791 159.478 197.791C151.128 197.791 143.465 200.705 142.356 204.326C141.193 208.036 147.323 211.127 156.043 211.127Z" fill="#B1DF71"/>
<path d="M336.677 158.356C336.783 158.091 336.307 157.827 335.514 157.738L326.002 156.855C325.262 156.767 324.575 156.943 324.469 157.208L320.875 165.113L333.083 166.261C334.299 163.523 335.514 160.918 336.677 158.356Z" fill="#E8E1D0"/>
<path d="M313.265 181.937C313.107 182.246 312.367 182.423 311.574 182.335L268.08 177.433L261.369 187.501L319.924 193.728C320.241 193.772 320.558 193.684 320.664 193.551C324.892 184.234 328.961 175.269 332.713 167.011L320.558 165.863L313.265 181.937Z" fill="#E8E1D0"/>
<path d="M231.774 211.656L238.327 201.279L174.064 193.286L173.219 194.302C181.146 196.245 185.849 200.043 185.109 204.326C185.004 204.9 184.845 205.43 184.528 206.004L231.774 211.656Z" fill="#E8E1D0"/>
<path d="M420.176 272.42C388.309 268.093 349.677 262.882 308.985 257.362L305.18 266.724L361.304 279.088C361.41 279.132 361.515 279.132 361.621 279.132H419.701C420.071 279.132 420.335 279 420.335 278.823L420.969 272.95C420.969 272.685 420.599 272.464 420.176 272.42Z" fill="#E8E1D0"/>
<path d="M423.506 240.802L378.955 235.37C378.585 235.326 378.215 235.414 378.162 235.591L372.772 257.185C372.719 257.406 373.036 257.582 373.459 257.671L421.075 263.986C421.498 264.03 421.868 263.941 421.92 263.721L424.246 241.243C424.246 241.023 423.929 240.846 423.506 240.802Z" fill="#E8E1D0"/>
<path d="M459.759 245.218L438.673 242.657C438.25 242.613 437.933 242.701 437.933 242.878L436.453 265.576C436.453 265.796 436.77 266.017 437.246 266.061L474.61 271.007C475.138 271.095 475.508 270.875 475.349 270.61L460.499 245.527C460.393 245.395 460.129 245.262 459.759 245.218Z" fill="#E8E1D0"/>
<path d="M76.1901 198.276L62.7667 216.559C55.368 215.587 48.6035 214.704 42.4732 213.909C42.4203 213.909 42.4203 213.909 42.3675 213.909L52.9899 195.936H53.0956L76.1901 198.276Z" fill="#E8E1D0"/>
<path d="M87.8166 219.826L103.037 200.97L78.3569 198.453L65.0392 216.824C72.068 217.795 79.6781 218.767 87.8166 219.826Z" fill="#E8E1D0"/>
<path d="M95.7438 228.525L45.3799 279.088H76.5601L123.119 232.235L95.7438 228.525Z" fill="#E8E1D0"/>
<path d="M214.968 265.885L210.846 272.862C208.997 275.997 213.33 279.088 219.566 279.088H281.768L285.52 270.83L226.436 262.573C221.574 261.91 216.448 263.368 214.968 265.885Z" fill="#E8E1D0"/>
<path d="M135.115 233.825L91.9387 279.088H143.148C152.185 263.632 162.385 246.189 167.035 238.152C156.096 236.695 145.421 235.238 135.115 233.825Z" fill="#E8E1D0"/>
<path d="M202.972 243.01C191.662 241.464 180.459 239.963 169.466 238.461C168.938 239.345 168.357 240.36 167.722 241.464C164.869 246.41 160.958 253.211 156.889 260.276C153.136 266.768 149.279 273.48 146.055 279.044H181.621C185.955 279.044 189.918 277.498 191.293 275.335L208.521 248.132C210.054 245.924 207.517 243.628 202.972 243.01Z" fill="#E8E1D0"/>
<path d="M321.774 278.293L302.167 273.877L300.053 279.088H321.615C322.514 279.088 322.619 278.47 321.774 278.293Z" fill="#E8E1D0"/>
<path d="M440.576 212.761C440.206 212.717 439.888 212.805 439.888 212.982L438.356 236.209C438.356 236.386 438.673 236.563 439.096 236.651L455.426 238.638C455.901 238.682 456.271 238.55 456.166 238.285L441.263 213.114C441.21 212.893 440.893 212.805 440.576 212.761Z" fill="#E8E1D0"/>
<path d="M463.353 278.249L436.665 274.628C436.242 274.584 435.819 274.717 435.819 274.893L435.555 278.514C435.555 278.779 436.031 279.044 436.612 279.044H463.564C464.516 279.088 464.304 278.382 463.353 278.249Z" fill="#E8E1D0"/>
<path d="M115.509 137.513L122.062 123.956H95.4796L88.8736 135.128L92.0445 135.923L115.509 137.513Z" fill="#E8E1D0"/>
<path d="M140.559 139.191C142.144 139.279 143.835 138.881 144.152 138.307L151.815 124.839C152.079 124.353 151.075 123.956 149.543 123.956H123.859L117.359 137.645L140.559 139.191Z" fill="#E8E1D0"/>
<path d="M38.2447 220.753L3.78796 279.088H27.1995L81.8441 226.627C65.6199 224.463 50.9282 222.476 38.2447 220.753Z" fill="#E8E1D0"/>
<path d="M377.898 142.591C377.845 142.812 378.321 143.077 379.061 143.121L386.935 143.872C387.675 143.96 388.256 143.784 388.362 143.563L390.634 133.803L380.91 132.744L377.898 142.591Z" fill="#E8E1D0"/>
<path d="M391.639 129.211C391.639 129.166 391.639 129.122 391.639 129.122L388.838 124.353C388.732 124.132 388.098 123.956 387.411 123.956H384.398C383.87 123.956 383.5 124.088 383.447 124.221L381.069 132.125L390.74 133.185L391.639 129.211Z" fill="#E8E1D0"/>
<path d="M429.16 194.655L427.681 204.9C427.681 205.033 427.945 205.21 428.368 205.254L436.401 206.093C436.823 206.137 437.193 206.004 437.088 205.828L430.482 194.744C430.27 194.435 429.213 194.39 429.16 194.655Z" fill="#E8E1D0"/>
<path d="M181.674 129.564C183.154 129.652 184.581 129.299 184.845 128.769L187.065 124.883C187.329 124.397 186.219 123.956 184.687 123.956H179.56C178.979 125.413 178.345 127.312 177.605 129.387L181.674 129.564Z" fill="#E8E1D0"/>
<path d="M165.556 123.956C164.182 123.956 162.966 124.309 162.702 124.75L161.117 127.797C160.852 128.239 161.751 128.681 163.072 128.725L175.755 129.299C176.442 127.312 177.129 125.457 177.764 123.956H165.556Z" fill="#E8E1D0"/>
<path d="M100.236 140.648L86.1783 139.677L75.873 157.12H76.0315L100.236 140.648Z" fill="#E8E1D0"/>
<path d="M297.358 135.393L343.759 139.809C344.446 139.853 345.08 139.721 345.185 139.5C346.401 136.85 347.511 134.421 348.515 132.169L300.212 129.167L296.407 134.863C296.248 135.084 296.671 135.305 297.358 135.393Z" fill="#E8E1D0"/>
<path d="M352.003 124.441C352.108 124.176 351.421 123.956 350.682 123.956H304.545C304.017 123.956 303.594 124.088 303.488 124.221L300.582 128.592L348.779 131.595C350.047 128.813 351.157 126.429 352.003 124.441Z" fill="#E8E1D0"/>
<path d="M366.536 146.477C366.642 146.256 366.113 145.991 365.373 145.903L356.231 145.02C355.544 144.931 354.909 145.108 354.804 145.329C354.222 146.742 353.641 148.243 353.007 149.745L365.056 150.893L366.536 146.477Z" fill="#E8E1D0"/>
<path d="M350.893 154.911C350.787 155.176 351.316 155.441 352.056 155.53L361.832 156.413C362.572 156.501 363.206 156.325 363.312 156.06L364.845 151.555L352.743 150.407C352.108 151.909 351.527 153.41 350.893 154.911Z" fill="#E8E1D0"/>
<path d="M399.46 145.064C400.306 145.152 400.993 144.932 400.834 144.622C400.517 144.093 398.35 144.004 398.245 144.49C398.192 144.755 398.72 144.976 399.46 145.064Z" fill="#E8E1D0"/>
<path d="M373.565 157.031C373.459 157.296 374.04 157.561 374.78 157.65L384.61 158.577C385.35 158.665 386.037 158.489 386.09 158.224L386.724 153.675L374.939 152.571L373.565 157.031Z" fill="#E8E1D0"/>
<path d="M387.411 148.464C387.464 148.243 386.935 147.978 386.195 147.934L377.845 147.139C377.105 147.051 376.471 147.228 376.418 147.449L375.097 151.864L386.777 152.968L387.411 148.464Z" fill="#E8E1D0"/>
<path d="M292.073 124.441C292.232 124.176 291.651 123.956 290.858 123.956H285.573L277.91 134.068L284.992 134.421L292.073 124.441Z" fill="#E8E1D0"/>
<path d="M359.137 134.643L370.129 135.658L372.613 128.328L362.097 127.268C361.304 129.432 360.3 131.861 359.137 134.643Z" fill="#E8E1D0"/>
<path d="M373.987 124.441C374.093 124.176 373.353 123.956 372.613 123.956H364.422C363.893 123.956 363.471 124.088 363.418 124.221C363.101 124.971 362.784 125.81 362.414 126.738L372.878 127.753L373.987 124.441Z" fill="#E8E1D0"/>
<path d="M356.759 140.56C356.653 140.781 357.182 141.046 357.869 141.09L366.747 141.929C367.434 142.017 368.068 141.841 368.174 141.62L369.971 136.276L358.926 135.261C358.239 136.939 357.499 138.705 356.759 140.56Z" fill="#E8E1D0"/>
<path d="M142.99 169.396L201.122 166.658C202.338 166.614 203.342 166.305 203.765 165.863L224.005 144.402C224.481 143.872 226.014 143.607 227.493 143.739L240.388 145.02C241.868 145.152 243.348 144.887 243.823 144.358L249.848 137.778C250.376 137.204 249.267 136.63 247.575 136.541L207.675 134.598C206.143 134.51 204.716 134.907 204.505 135.437L199.907 145.815C199.695 146.345 198.321 146.742 196.842 146.698L154.405 146.036C152.872 145.991 151.445 146.433 151.128 146.963L140.03 168.115C139.607 168.866 141.034 169.484 142.99 169.396Z" fill="#B1DF71"/>
<path d="M276.113 123.956H271.885L263.641 133.406L268.45 133.627L276.113 123.956Z" fill="#E8E1D0"/>
<path d="M156.255 142.591L171.422 142.812C172.215 140.206 173.377 136.585 174.54 133.008L161.592 132.39C160.06 132.302 158.527 132.699 158.263 133.229L153.929 141.531C153.612 142.105 154.669 142.591 156.255 142.591Z" fill="#E8E1D0"/>
<path d="M188.65 143.121C190.13 143.165 191.451 142.768 191.715 142.238L195.203 134.907C195.415 134.421 194.516 133.98 193.089 133.892L176.337 133.097C175.28 136.276 174.223 139.721 173.271 142.856L188.65 143.121Z" fill="#E8E1D0"/>
<path d="M127.135 162.11C128.879 162.286 130.835 161.8 131.258 161.094L135.168 154.205L96.3251 150.496L85.4913 158.091L127.135 162.11Z" fill="#E8E1D0"/>
<path d="M140.77 144.313C141.034 143.828 140.242 143.386 138.868 143.298L111.757 141.443C110.435 141.355 108.956 141.62 108.269 142.105L97.2764 149.789L135.591 153.454L140.77 144.313Z" fill="#E8E1D0"/>
<path d="M195.943 130.226L251.962 132.832C253.283 132.876 254.499 132.611 254.868 132.213L262.426 123.956H199.008C197.687 123.956 196.525 124.265 196.313 124.706L193.882 129.255C193.618 129.74 194.569 130.182 195.943 130.226Z" fill="#E8E1D0"/>
<path d="M397.822 159.769L408.656 160.785C409.554 160.873 410.241 160.608 410.082 160.299L407.334 155.618L397.029 154.646L396.553 159.195C396.501 159.46 397.082 159.725 397.822 159.769Z" fill="#E8E1D0"/>
<path d="M403.952 149.966C403.846 149.745 403.318 149.568 402.737 149.524L398.932 149.171C398.192 149.083 397.557 149.259 397.505 149.524L397.029 153.94L406.806 154.868L403.952 149.966Z" fill="#E8E1D0"/>
</g>
<g clip-path="url(#clip1)">
<path d="M232.255 184.207C178.903 106.863 169 98.9251 169 70.5C169 31.5638 200.564 0 239.5 0C278.436 0 310 31.5638 310 70.5C310 98.9251 300.097 106.863 246.745 184.207C243.244 189.265 235.755 189.264 232.255 184.207Z" fill="#FFCC33"/>
<path d="M212.393 78.9085C213.041 77.6772 213.967 76.7142 215.17 76.0196C216.404 75.2934 217.869 74.9303 219.566 74.9303C221.602 74.9303 223.437 75.4828 225.072 76.5879C226.707 77.6614 227.987 79.24 228.913 81.3238C229.869 83.3761 230.347 85.8072 230.347 88.6172C230.347 91.4272 229.869 93.8741 228.913 95.958C227.987 98.0102 226.707 99.5888 225.072 100.694C223.437 101.767 221.602 102.304 219.566 102.304C217.869 102.304 216.404 101.957 215.17 101.262C213.967 100.536 213.041 99.5573 212.393 98.3259V114.76H202.121V75.2618H212.393V78.9085ZM219.936 88.6172C219.936 87.1964 219.581 86.0914 218.872 85.3021C218.162 84.5127 217.252 84.1181 216.141 84.1181C215.031 84.1181 214.121 84.5127 213.411 85.3021C212.702 86.0914 212.347 87.1964 212.347 88.6172C212.347 90.038 212.702 91.1431 213.411 91.9324C214.121 92.7217 215.031 93.1164 216.141 93.1164C217.252 93.1164 218.162 92.7217 218.872 91.9324C219.581 91.1431 219.936 90.038 219.936 88.6172Z" fill="white"/>
<path d="M243.844 75.2618V101.973H233.572V75.2618H243.844Z" fill="white"/>
<path d="M266.762 75.0724C269.754 75.0724 272.083 76.0985 273.749 78.1508C275.446 80.203 276.294 82.9814 276.294 86.486V101.973H266.068V87.8121C266.068 86.5492 265.728 85.5546 265.05 84.8285C264.402 84.0707 263.523 83.6918 262.412 83.6918C261.271 83.6918 260.376 84.0707 259.728 84.8285C259.08 85.5546 258.756 86.5492 258.756 87.8121V101.973H248.484V75.2618H258.756V79.3347C259.559 78.0718 260.623 77.0457 261.949 76.2564C263.307 75.4671 264.911 75.0724 266.762 75.0724Z" fill="white"/>
<path d="M225.34 54.471C225.34 56.3043 224.926 57.9735 224.097 59.4785C223.268 60.9561 222.039 62.1327 220.408 63.0083C218.804 63.884 216.852 64.3218 214.553 64.3218H211.024V73.5569H202.121V44.4971H214.553C218.028 44.4971 220.689 45.4001 222.533 47.206C224.405 49.012 225.34 51.4337 225.34 54.471ZM213.55 57.1389C215.395 57.1389 216.317 56.2496 216.317 54.471C216.317 52.6924 215.395 51.8031 213.55 51.8031H211.024V57.1389H213.55Z" fill="white"/>
<path d="M238.912 73.8442C236.639 73.8442 234.594 73.3653 232.776 72.4076C230.958 71.4499 229.528 70.0817 228.485 68.3031C227.469 66.4972 226.961 64.3902 226.961 61.9822C226.961 59.5742 227.469 57.481 228.485 55.7023C229.528 53.8964 230.958 52.5145 232.776 51.5568C234.594 50.5991 236.639 50.1202 238.912 50.1202C241.184 50.1202 243.23 50.5991 245.048 51.5568C246.866 52.5145 248.283 53.8964 249.299 55.7023C250.341 57.481 250.863 59.5742 250.863 61.9822C250.863 64.3902 250.341 66.4972 249.299 68.3031C248.283 70.0817 246.866 71.4499 245.048 72.4076C243.23 73.3653 241.184 73.8442 238.912 73.8442ZM238.912 65.9636C239.741 65.9636 240.436 65.6352 240.997 64.9785C241.559 64.2944 241.839 63.2957 241.839 61.9822C241.839 60.6688 241.559 59.6837 240.997 59.027C240.436 58.3429 239.741 58.0009 238.912 58.0009C238.083 58.0009 237.388 58.3429 236.827 59.027C236.265 59.6837 235.984 60.6688 235.984 61.9822C235.984 63.2957 236.252 64.2944 236.786 64.9785C237.348 65.6352 238.056 65.9636 238.912 65.9636Z" fill="white"/>
<path d="M276.879 54.471C276.879 56.3043 276.465 57.9735 275.636 59.4785C274.807 60.9561 273.577 62.1327 271.946 63.0083C270.342 63.884 268.391 64.3218 266.091 64.3218H262.562V73.5569H253.66V44.4971H266.091C269.567 44.4971 272.227 45.4001 274.072 47.206C275.943 49.012 276.879 51.4337 276.879 54.471ZM265.089 57.1389C266.934 57.1389 267.856 56.2496 267.856 54.471C267.856 52.6924 266.934 51.8031 265.089 51.8031H262.562V57.1389H265.089Z" fill="white"/>
</g>
<defs>
<filter id="filter0_d" x="0" y="124" width="484" height="163" filterUnits="userSpaceOnUse" color-interpolation-filters="sRGB">
<feFlood flood-opacity="0" result="BackgroundImageFix"/>
<feColorMatrix in="SourceAlpha" type="matrix" values="0 0 0 0 0 0 0 0 0 0 0 0 0 0 0 0 0 0 127 0"/>
<feOffset dy="4"/>
<feGaussianBlur stdDeviation="2"/>
<feColorMatrix type="matrix" values="0 0 0 0 0 0 0 0 0 0 0 0 0 0 0 0 0 0 0.25 0"/>
<feBlend mode="normal" in2="BackgroundImageFix" result="effect1_dropShadow"/>
<feBlend mode="normal" in="SourceGraphic" in2="effect1_dropShadow" result="shape"/>
</filter>
<clipPath id="clip0">
<rect width="476" height="155" fill="white" transform="translate(4 124)"/>
</clipPath>
<clipPath id="clip1">
<rect width="141" height="188" fill="white" transform="translate(169)"/>
</clipPath>
</defs>
</svg>
