<?xml version="1.0" encoding="utf-8"?>
<!-- Generator: Adobe Illustrator 18.1.1, SVG Export Plug-In . SVG Version: 6.00 Build 0)  -->
<svg version="1.1" id="Camada_1" xmlns="http://www.w3.org/2000/svg" xmlns:xlink="http://www.w3.org/1999/xlink" x="0px" y="0px"
	 viewBox="-317.5 307 28.9 37.9" enable-background="new -317.5 307 28.9 37.9" xml:space="preserve">
<g>
	<path fill="#E8A323" d="M-303,309.8c-6.6,0-12,5.4-12,12c0,7.9,10.1,19.2,10.5,19.7c0.4,0.4,0.9,0.7,1.5,0.7s1.1-0.2,1.5-0.7
		c0.4-0.5,10.5-11.8,10.5-19.7C-291,315.2-296.4,309.8-303,309.8z M-312,321.8c0-5,4-9,9-9c5,0,9,4,9,9c0,1.4-0.5,3.2-1.4,5.3
		c-0.8,1.8-1.9,3.7-3.3,5.8c-1.7,2.5-3.4,4.7-4.4,5.8c-1-1.1-2.7-3.3-4.4-5.8c-1.4-2.1-2.5-4-3.3-5.8
		C-311.5,325-312,323.3-312,321.8z"/>
	<path fill="#E8A323" d="M-303,327c2.8,0,5-2.2,5-5s-2.2-5-5-5s-5,2.2-5,5S-305.8,327-303,327z M-303,319c1.7,0,3,1.3,3,3
		s-1.3,3-3,3s-3-1.3-3-3S-304.7,319-303,319z"/>
</g>
</svg>
