<?xml version="1.0" encoding="utf-8"?>
<!-- Generator: Adobe Illustrator 18.1.1, SVG Export Plug-In . SVG Version: 6.00 Build 0)  -->
<svg version="1.1" id="Camada_1" xmlns="http://www.w3.org/2000/svg" xmlns:xlink="http://www.w3.org/1999/xlink" x="0px" y="0px"
	 viewBox="4.9 598.8 41.8 41.8" enable-background="new 4.9 598.8 41.8 41.8" xml:space="preserve">
<g>
	<path fill="#FFCC33" d="M15.1,609.1L15.1,609.1c5.9-5.9,15.3-5.9,21.2,0l0,0c5.9,5.9,5.9,15.3,0,21.2l0,0c-5.9,5.9-15.3,5.9-21.2,0
		l0,0C9.3,624.4,9.3,615,15.1,609.1z"/>
	<path fill="#FFFFFF" d="M18.6,619.4h14.6c0.3,0,0.6,0.2,0.6,0.6l0,0c0,0.3-0.2,0.6-0.6,0.6H18.6c-0.3,0-0.6-0.2-0.6-0.6l0,0
		C18,619.6,18.3,619.4,18.6,619.4z"/>
	<path fill="#FFFFFF" d="M25.3,627.2v-14.6c0-0.3,0.2-0.6,0.6-0.6l0,0c0.3,0,0.6,0.2,0.6,0.6v14.6c0,0.3-0.2,0.6-0.6,0.6l0,0
		C25.6,627.8,25.3,627.6,25.3,627.2z"/>
</g>
</svg>
