<?xml version="1.0" encoding="utf-8"?>
<!-- Generator: Adobe Illustrator 18.1.1, SVG Export Plug-In . SVG Version: 6.00 Build 0)  -->
<svg version="1.1" id="Camada_1" xmlns="http://www.w3.org/2000/svg" xmlns:xlink="http://www.w3.org/1999/xlink" x="0px" y="0px"
	 viewBox="278.3 278.3 95.3 95.3" enable-background="new 278.3 278.3 95.3 95.3" xml:space="preserve">
<g>
	<path fill="#E8A323" d="M296,296L296,296c16.7-16.7,43.4-16.7,60.1,0l0,0c16.7,16.7,16.7,43.4,0,60.1l0,0
		c-16.7,16.7-43.4,16.7-60.1,0l0,0C279.3,339.4,279.3,312.6,296,296z"/>
	<path fill="#FFFFFF" d="M305.8,325h41.5c0.9,0,1.6,0.7,1.6,1.6l0,0c0,0.9-0.7,1.6-1.6,1.6h-41.5c-0.9,0-1.6-0.7-1.6-1.6l0,0
		C304.2,325.8,304.9,325,305.8,325z"/>
	<path fill="#FFFFFF" d="M324.8,347.3v-41.5c0-0.9,0.7-1.6,1.6-1.6l0,0c0.9,0,1.6,0.7,1.6,1.6v41.5c0,0.9-0.7,1.6-1.6,1.6l0,0
		C325.5,349,324.8,348.3,324.8,347.3z"/>
</g>
</svg>
