<?xml version="1.0" encoding="utf-8"?>
<!-- Generator: Adobe Illustrator 18.1.1, SVG Export Plug-In . SVG Version: 6.00 Build 0)  -->
<svg version="1.1" id="Camada_1" xmlns="http://www.w3.org/2000/svg" xmlns:xlink="http://www.w3.org/1999/xlink" x="0px" y="0px"
	 viewBox="0 0 652 652" enable-background="new 0 0 652 652" xml:space="preserve">
<g>
	<path fill="#FFCC33" d="M95.2,95.6L95.2,95.6C222.7-31.9,427-31.9,555.8,95.6l0,0c127.5,127.5,127.5,331.8,0,460.7l0,0
		c-127.5,127.5-331.8,127.5-460.7,0l0,0C-31.1,427.5-31.1,223.2,95.2,95.6z"/>
	<g>
		<path fill="#FFFFFF" d="M170.6,349.8c-11.9,0-17.3-9-17.3-17.3c0-11.9,8.9-17.3,17.3-17.3h317.5c11.9,0,17.3,8.9,17.3,17.3
			s-5.4,17.3-17.3,17.3H170.6z"/>
		<path fill="#FFFFFF" d="M488.2,319.5c6.5,0,13,3.9,13,13c0,6.5-3.9,13-13,13H170.6c-6.5,0-13-3.9-13-13s6.5-13,13-13H488.2
			 M488.2,311H170.6c-5.5,0-10.7,1.8-14.5,5.2c-3.2,2.8-7,7.9-7,16.3c0,4.7,1.2,11.3,7,16.3c3.8,3.3,9,5.2,14.5,5.2h317.5
			c4.7,0,11.3-1.2,16.3-7c3.3-3.8,5.2-9,5.2-14.5c0-4.7-1.2-11.3-7-16.3C498.8,312.8,493.7,311,488.2,311L488.2,311z"/>
	</g>
	<g>
		<path fill="#FFFFFF" d="M329.4,505.9c-11.9,0-17.3-8.9-17.3-17.3V171.1c0-8.3,5.4-17.3,17.3-17.3c11.9,0,17.3,9,17.3,17.3v317.5
			C346.7,497,341.3,505.9,329.4,505.9z"/>
		<path fill="#FFFFFF" d="M329.4,158.1c6.5,0,13,3.9,13,13v317.5c0,6.5-3.9,13-13,13c-6.5,0-13-3.9-13-13V171.1
			C316.4,164.6,320.3,158.1,329.4,158.1 M329.4,149.6c-4.7,0-11.3,1.2-16.3,7c-3.3,3.8-5.2,9-5.2,14.5v317.5c0,4.7,1.2,11.3,7,16.3
			c3.8,3.3,9,5.2,14.5,5.2c4.7,0,11.3-1.2,16.3-7c3.3-3.8,5.2-9,5.2-14.5V171.1c0-4.7-1.2-11.3-7-16.3
			C340.1,151.4,334.9,149.6,329.4,149.6L329.4,149.6z"/>
	</g>
</g>
</svg>
