<?xml version="1.0" encoding="utf-8"?>
<!-- Generator: Adobe Illustrator 18.1.1, SVG Export Plug-In . SVG Version: 6.00 Build 0)  -->
<svg version="1.1" id="Camada_1" xmlns="http://www.w3.org/2000/svg" xmlns:xlink="http://www.w3.org/1999/xlink" x="0px" y="0px"
	 viewBox="307.4 288.6 50 50.1" enable-background="new 307.4 288.6 50 50.1" xml:space="preserve">
<g>
	<path fill="#FFCC33" d="M314.7,296L314.7,296c9.8-9.8,25.5-9.8,35.4,0l0,0c9.8,9.8,9.8,25.5,0,35.4l0,0c-9.8,9.8-25.5,9.8-35.4,0
		l0,0C305,321.5,305,305.8,314.7,296z"/>
	<path fill="#FFFFFF" d="M320.5,313.2h24.4c0.5,0,1,0.3,1,1l0,0c0,0.5-0.3,1-1,1h-24.4c-0.5,0-1-0.3-1-1l0,0
		C319.5,313.5,320,313.2,320.5,313.2z"/>
	<path fill="#FFFFFF" d="M331.7,326.2v-24.4c0-0.5,0.3-1,1-1l0,0c0.5,0,1,0.3,1,1v24.4c0,0.5-0.3,1-1,1l0,0
		C332.2,327.2,331.7,326.9,331.7,326.2z"/>
</g>
</svg>
