<?xml version="1.0" encoding="utf-8"?>
<!-- Generator: Adobe Illustrator 18.1.1, SVG Export Plug-In . SVG Version: 6.00 Build 0)  -->
<svg version="1.1" id="Camada_1" xmlns="http://www.w3.org/2000/svg" xmlns:xlink="http://www.w3.org/1999/xlink" x="0px" y="0px"
	 viewBox="-299 300 52 52" enable-background="new -299 300 52 52" xml:space="preserve">
<path fill="#FFCC33" d="M-285.9,312.7L-285.9,312.7c7.1-7.1,18.5-7.1,25.6,0l0,0c7.1,7.1,7.1,18.5,0,25.6l0,0
	c-7.1,7.1-18.5,7.1-25.6,0l0,0C-293,331.2-293,319.8-285.9,312.7z"/>
<path fill="#FFFFFF" d="M-281.7,325.1h17.7c0.4,0,0.7,0.3,0.7,0.7l0,0c0,0.4-0.3,0.7-0.7,0.7h-17.7c-0.4,0-0.7-0.3-0.7-0.7l0,0
	C-282.4,325.4-282.1,325.1-281.7,325.1z"/>
<path fill="#FFFFFF" d="M-273.6,334.6v-17.7c0-0.4,0.3-0.7,0.7-0.7l0,0c0.4,0,0.7,0.3,0.7,0.7v17.7c0,0.4-0.3,0.7-0.7,0.7l0,0
	C-273.3,335.3-273.6,335-273.6,334.6z"/>
</svg>
