<?xml version="1.0" encoding="utf-8"?>
<!-- Generator: Adobe Illustrator 18.1.1, SVG Export Plug-In . SVG Version: 6.00 Build 0)  -->
<svg version="1.1" id="Camada_1" xmlns="http://www.w3.org/2000/svg" xmlns:xlink="http://www.w3.org/1999/xlink" x="0px" y="0px"
	 viewBox="301 288.7 50 50" enable-background="new 301 288.7 50 50" xml:space="preserve">
<g>
	<path fill="#E8A323" d="M308.3,296L308.3,296c9.8-9.8,25.5-9.8,35.3,0l0,0c9.8,9.8,9.8,25.5,0,35.3l0,0c-9.8,9.8-25.5,9.8-35.3,0
		l0,0C298.5,321.5,298.5,305.9,308.3,296z"/>
	<path fill="#FFFFFF" d="M314.2,313h24.3c0.5,0,1,0.3,1,1l0,0c0,0.5-0.3,1-1,1h-24.3c-0.5,0-1-0.3-1-1l0,0
		C313.2,313.5,313.5,313,314.2,313z"/>
	<path fill="#FFFFFF" d="M325.2,326.2v-24.3c0-0.5,0.3-1,1-1l0,0c0.5,0,1,0.3,1,1v24.3c0,0.5-0.3,1-1,1l0,0
		C325.7,327.2,325.2,326.7,325.2,326.2z"/>
</g>
</svg>
